<?xml version="1.0" encoding="UTF-8"?>
<svg version="1.1" xmlns="http://www.w3.org/2000/svg" width="220" height="229">
<path d="M0 0 C72.6 0 145.2 0 220 0 C220 75.57 220 151.14 220 229 C147.4 229 74.8 229 0 229 C0 153.43 0 77.86 0 0 Z " fill="#F8F8F8" transform="translate(0,0)"/>
<path d="M0 0 C2.20245066 0.00560425 4.40490509 0.00987042 6.60736084 0.01286316 C12.36784424 0.02424665 18.12809605 0.05365721 23.88848877 0.0869751 C29.78109608 0.11781685 35.67374127 0.13139849 41.56640625 0.14648438 C53.10166353 0.17853371 64.63674991 0.22965048 76.171875 0.29296875 C76.21861963 22.05927236 76.25387593 43.82556768 76.27549934 65.59191132 C76.28580684 75.69866108 76.29985714 85.80537964 76.32275391 95.91210938 C76.34270387 104.72231457 76.35559527 113.53249716 76.36005199 122.34272432 C76.36265664 127.00658244 76.3687678 131.67037589 76.38333511 136.33421326 C76.39694437 140.72705444 76.40109088 145.11980453 76.39809036 149.51266479 C76.39863903 151.12186682 76.40259651 152.73107199 76.41028595 154.34025574 C76.46651113 166.71728138 76.02861074 176.64147501 67.453125 186.2109375 C56.26496532 196.96349261 42.57790427 195.83288693 28.09765625 195.68359375 C25.96103955 195.6761224 23.82441595 195.6704337 21.68778992 195.66644287 C16.09653408 195.65125696 10.50570171 195.6120364 4.91461182 195.56762695 C-0.803612 195.52652159 -6.52190502 195.50839939 -12.24023438 195.48828125 C-23.43638276 195.44553488 -34.6322185 195.37736974 -45.828125 195.29296875 C-45.828125 190.67296875 -45.828125 186.05296875 -45.828125 181.29296875 C-44.00981422 181.29416214 -44.00981422 181.29416214 -42.1547699 181.29537964 C-30.72230557 181.29898433 -19.29029053 181.27116202 -7.85797024 181.21269035 C-1.9806454 181.18363702 3.89628057 181.16559841 9.77368164 181.17285156 C15.44740403 181.17944613 21.12033831 181.1569514 26.79389763 181.11441422 C28.95675793 181.10328544 31.11969818 181.10258073 33.28256416 181.11254501 C36.31628116 181.12472823 39.34759655 181.09961668 42.38110352 181.06591797 C43.27230896 181.07813889 44.1635144 181.0903598 45.08172607 181.10295105 C50.68184912 180.99109665 53.68621168 179.80806752 57.78951931 175.96891975 C61.33646983 171.66864065 61.66859123 167.83926052 61.5390625 162.40625 C59.43880878 144.59877963 45.90969811 127.34181415 32.3359375 116.53515625 C23.83043956 110.50780339 12.38491587 102.90655585 1.671875 103.48046875 C-0.14741451 103.90280381 -1.96625753 104.33021173 -3.76953125 104.81640625 C-13.93312393 107.39941876 -23.47520229 106.94514658 -33.453125 103.9140625 C-40.81151431 101.98974687 -48.35608067 106.0413513 -54.828125 109.29296875 C-66.31858706 116.06265062 -76.68482474 124.94772716 -83.828125 136.29296875 C-88.85504563 135.83597597 -91.97708761 133.30055127 -95.828125 130.29296875 C-94.41594454 120.69910782 -82.21762154 110.63869041 -74.7890625 104.9765625 C-58.59609567 93.29296875 -58.59609567 93.29296875 -52.828125 93.29296875 C-53.41980469 92.54273437 -54.01148438 91.7925 -54.62109375 91.01953125 C-65.15634813 77.37354107 -71.56359724 64.01818523 -69.828125 46.29296875 C-66.55149013 30.20598741 -58.10635865 17.28117815 -44.58203125 8.0859375 C-30.04024684 -0.20619647 -16.28404566 -0.12230283 0 0 Z " fill="#040404" transform="translate(143.828125,-0.29296875)"/>
<path d="M0 0 C9.14397274 2.21225147 18.07754761 1.37615531 26.9609375 -1.50390625 C34.13306058 -2.87872341 39.98018133 -0.53126734 46.3125 2.5625 C47.05749756 2.92077881 47.80249512 3.27905762 48.57006836 3.64819336 C54.26051228 6.46388444 59.12843074 9.70749782 63.875 13.9375 C64.53371094 14.45570312 65.19242188 14.97390625 65.87109375 15.5078125 C77.54794148 24.93123348 89.36215803 42.41257577 91.2109375 57.71875 C91.32212368 65.45730836 89.76452322 68.9514444 84.33139038 74.56608582 C80.26523865 77.88160022 76.25650989 77.60675642 71.19775391 77.50512695 C69.76266479 77.50622215 69.76266479 77.50622215 68.29858398 77.50733948 C65.14899199 77.50386725 62.00089485 77.46502234 58.8515625 77.42578125 C56.66296191 77.41645185 54.47435086 77.40933634 52.28573608 77.40434265 C46.5348409 77.38528304 40.78458051 77.33619032 35.03393555 77.28082275 C29.16203396 77.22960841 23.29002947 77.20682389 17.41796875 77.18164062 C5.90336745 77.12807127 -5.61076342 77.04277035 -17.125 76.9375 C-17.125 81.5575 -17.125 86.1775 -17.125 90.9375 C-4.79795251 90.89935942 7.52879323 90.83987585 19.85560322 90.75359726 C25.58026034 90.71418981 31.30476518 90.68196825 37.02954102 90.66650391 C42.56052187 90.6512931 48.09108389 90.61676882 53.62187767 90.56919098 C55.72560155 90.55442279 57.82938524 90.54646162 59.93316078 90.54561615 C79.60422875 90.68125697 79.60422875 90.68125697 96.15234375 80.9296875 C100.45942546 75.94870866 103.36398893 70.58064392 103.875 63.9375 C104.205 63.9375 104.535 63.9375 104.875 63.9375 C104.875 84.0675 104.875 104.1975 104.875 124.9375 C32.275 124.9375 -40.325 124.9375 -115.125 124.9375 C-115.125 80.9375 -115.125 80.9375 -111.125 76.9375 C-107.91699219 76.48339844 -107.91699219 76.48339844 -104.171875 76.546875 C-103.51165344 76.55253479 -102.85143188 76.55819458 -102.17120361 76.56402588 C-100.07171737 76.5863377 -97.9739663 76.63651686 -95.875 76.6875 C-94.4479414 76.70757206 -93.02085592 76.72582161 -91.59375 76.7421875 C-88.10360707 76.78618307 -84.61447301 76.85517124 -81.125 76.9375 C-81.14594727 76.0496582 -81.16689453 75.16181641 -81.18847656 74.24707031 C-81.25675677 70.94455545 -81.3068487 67.6427933 -81.34472656 64.33984375 C-81.36480982 62.91198879 -81.39208252 61.48421575 -81.42675781 60.05664062 C-81.47542669 58.00109632 -81.49799967 55.94664145 -81.515625 53.890625 C-81.53657227 52.65473633 -81.55751953 51.41884766 -81.57910156 50.14550781 C-81.125 46.9375 -81.125 46.9375 -79.32324219 44.53027344 C-76.15533888 42.23491569 -73.93611295 42.45244926 -70.125 42.9375 C-68.4284668 44.02270508 -68.4284668 44.02270508 -67.125 45.9375 C-66.78442383 49.1237793 -66.78442383 49.1237793 -66.83203125 53.01171875 C-66.83627609 53.6955513 -66.84052094 54.37938385 -66.84489441 55.0839386 C-66.86166647 57.26469561 -66.89931343 59.44452309 -66.9375 61.625 C-66.95254886 63.10480435 -66.96623692 64.5846232 -66.97851562 66.06445312 C-67.01156431 69.68910336 -67.06333554 73.31321094 -67.125 76.9375 C-66.20686523 76.92178955 -65.28873047 76.9060791 -64.34277344 76.88989258 C-60.92849051 76.8386913 -57.51461696 76.80111521 -54.10009766 76.77270508 C-52.62379509 76.75764077 -51.14753712 76.73718518 -49.67138672 76.71118164 C-47.54643742 76.67469261 -45.42208099 76.65775067 -43.296875 76.64453125 C-42.0190918 76.6288208 -40.74130859 76.61311035 -39.42480469 76.59692383 C-35.8950302 76.96123542 -34.72095833 77.64589541 -32.125 79.9375 C-29.76570358 80.29707889 -29.76570358 80.29707889 -27.375 80.125 C-25.9725 80.063125 -24.57 80.00125 -23.125 79.9375 C-23.125 76.9675 -23.125 73.9975 -23.125 70.9375 C-18.67 70.4425 -18.67 70.4425 -14.125 69.9375 C-14.125 71.5875 -14.125 73.2375 -14.125 74.9375 C-11.155 75.2675 -8.185 75.5975 -5.125 75.9375 C-5.125 74.2875 -5.125 72.6375 -5.125 70.9375 C-0.67 70.4425 -0.67 70.4425 3.875 69.9375 C3.875 71.9175 3.875 73.8975 3.875 75.9375 C6.845 75.9375 9.815 75.9375 12.875 75.9375 C12.875 73.9575 12.875 71.9775 12.875 69.9375 C15.845 69.9375 18.815 69.9375 21.875 69.9375 C21.875 66.9675 21.875 63.9975 21.875 60.9375 C25.175 60.9375 28.475 60.9375 31.875 60.9375 C31.875 57.9675 31.875 54.9975 31.875 51.9375 C28.905 51.9375 25.935 51.9375 22.875 51.9375 C22.875 45.9975 22.875 40.0575 22.875 33.9375 C25.515 33.6075 28.155 33.2775 30.875 32.9375 C31.59139636 27.20632909 31.97997567 21.71116191 31.875 15.9375 C34.515 15.6075 37.155 15.2775 39.875 14.9375 C40.205 11.9675 40.535 8.9975 40.875 5.9375 C37.905 5.9375 34.935 5.9375 31.875 5.9375 C31.875 8.9075 31.875 11.8775 31.875 14.9375 C28.575 14.9375 25.275 14.9375 21.875 14.9375 C21.875 11.9675 21.875 8.9975 21.875 5.9375 C18.905 5.9375 15.935 5.9375 12.875 5.9375 C12.875 8.9075 12.875 11.8775 12.875 14.9375 C9.905 14.9375 6.935 14.9375 3.875 14.9375 C3.875 11.9675 3.875 8.9975 3.875 5.9375 C0.905 5.9375 -2.065 5.9375 -5.125 5.9375 C-5.125 8.9075 -5.125 11.8775 -5.125 14.9375 C-9.085 15.4325 -9.085 15.4325 -13.125 15.9375 C-13.310625 17.8865625 -13.310625 17.8865625 -13.5 19.875 C-13.7109375 22.08984375 -13.7109375 22.08984375 -14.125 23.9375 C-17.19390187 25.47195094 -19.82594266 24.48734289 -23.125 23.9375 C-23.125 21.2975 -23.125 18.6575 -23.125 15.9375 C-19.165 15.4425 -19.165 15.4425 -15.125 14.9375 C-14.795 11.9675 -14.465 8.9975 -14.125 5.9375 C-17.095 5.9375 -20.065 5.9375 -23.125 5.9375 C-23.125 8.9075 -23.125 11.8775 -23.125 14.9375 C-26.425 14.9375 -29.725 14.9375 -33.125 14.9375 C-33.125 17.9075 -33.125 20.8775 -33.125 23.9375 C-36.095 23.9375 -39.065 23.9375 -42.125 23.9375 C-43.11988833 21.12840354 -43.58208025 19.81057587 -43.125 16.9375 C-33.93243135 4.80710013 -14.81776684 -5.03804073 0 0 Z M21.875 14.9375 C21.875 17.9075 21.875 20.8775 21.875 23.9375 C18.905 23.9375 15.935 23.9375 12.875 23.9375 C12.83258277 21.60455225 12.83407063 19.27047433 12.875 16.9375 C14.88865086 14.92384914 19.10594551 14.9375 21.875 14.9375 Z M3.875 60.9375 C6.845 60.9375 9.815 60.9375 12.875 60.9375 C12.875 63.9075 12.875 66.8775 12.875 69.9375 C9.905 69.9375 6.935 69.9375 3.875 69.9375 C3.875 66.9675 3.875 63.9975 3.875 60.9375 Z " fill="#FAFAFA" transform="translate(115.125,104.0625)"/>
<path d="M0 0 C29.7 0 59.4 0 90 0 C90 52.8 90 105.6 90 160 C89.67 160 89.34 160 89 160 C88.81566406 159.18660156 88.63132812 158.37320313 88.44140625 157.53515625 C84.41593875 141.63008688 76.65061997 127.25059427 64.73828125 115.83203125 C63 114 63 114 63 112 C62.11441406 111.60167969 62.11441406 111.60167969 61.2109375 111.1953125 C58.94283948 109.96909696 57.46647902 108.66648412 55.625 106.875 C49.05402816 100.96112535 40.90760646 96.85593682 33 93 C33 92.01 33 91.02 33 90 C33.66 90 34.32 90 35 90 C35.39058594 89.16275391 35.39058594 89.16275391 35.7890625 88.30859375 C37.13652577 85.73972022 38.72978763 83.45129089 40.375 81.0625 C48.31313684 68.50068847 49.9534291 54.8074332 47.33984375 40.34765625 C43.55272558 26.55992301 35.22368359 15.57989459 23.0625 8.1875 C15.48942503 4.00563847 8.59005243 1.78091386 0 1 C0 0.67 0 0.34 0 0 Z " fill="#F9F9F9" transform="translate(130,0)"/>
<path d="M0 0 C11.05679788 6.59501938 17.67946539 15.13648252 21 27.65234375 C21.86307815 41.17390146 19.96416646 51.52540243 11.66015625 62.6328125 C5.06825474 69.93386723 -4.50407621 74.21494314 -14.23046875 74.79296875 C-27.54986436 74.95859854 -36.67229225 72.75174662 -46.8125 63.58984375 C-55.57075524 53.66701177 -57.67218355 43.94085893 -57.21484375 31.0390625 C-56.46776219 20.06092007 -50.89422074 11.77643719 -42.8125 4.58984375 C-30.4846851 -4.35896165 -14.02171027 -7.03032973 0 0 Z " fill="#F6F6F6" transform="translate(144.8125,17.41015625)"/>
<path d="M0 0 C0.33 0 0.66 0 1 0 C1 20.13 1 40.26 1 61 C-41.24 61 -83.48 61 -127 61 C-127 53 -127 53 -126 52 C-123.32941149 51.85884839 -120.67567762 51.95752893 -118 52 C-118 49.03 -118 46.06 -118 43 C-115.03 43 -112.06 43 -109 43 C-109 40.03 -109 37.06 -109 34 C-111.97 34 -114.94 34 -118 34 C-118 32.02 -118 30.04 -118 28 C-118.99 27.67 -119.98 27.34 -121 27 C-119.82173141 26.99635437 -118.64346283 26.99270874 -117.42948914 26.98895264 C-106.29263058 26.95191452 -95.15604628 26.89404561 -84.01939678 26.81609726 C-78.29473966 26.77668981 -72.57023482 26.74446825 -66.84545898 26.72900391 C-61.31447813 26.7137931 -55.78391611 26.67926882 -50.25312233 26.63169098 C-48.14939845 26.61692279 -46.04561476 26.60896162 -43.94183922 26.60811615 C-24.27077125 26.74375697 -24.27077125 26.74375697 -7.72265625 16.9921875 C-3.41557454 12.01120866 -0.51101107 6.64314392 0 0 Z " fill="#FBFBFB" transform="translate(219,168)"/>
<path d="M0 0 C1.6965332 1.08520508 1.6965332 1.08520508 3 3 C3.34057617 6.1862793 3.34057617 6.1862793 3.29296875 10.07421875 C3.28872391 10.7580513 3.28447906 11.44188385 3.28010559 12.1464386 C3.26333353 14.32719561 3.22568657 16.50702309 3.1875 18.6875 C3.17245114 20.16730435 3.15876308 21.6471232 3.14648438 23.12695312 C3.11343569 26.75160336 3.06166446 30.37571094 3 34 C3.92337158 33.98428955 4.84674316 33.9685791 5.7980957 33.95239258 C9.22539889 33.90125168 12.65229642 33.86364465 16.07983398 33.83520508 C17.56297199 33.82012232 19.04606544 33.79965311 20.52905273 33.77368164 C22.66140745 33.73727384 24.79317235 33.72026927 26.92578125 33.70703125 C28.85031128 33.68346558 28.85031128 33.68346558 30.8137207 33.65942383 C34 34 34 34 35.92260742 35.29956055 C37.72432742 38.14319975 37.29111527 40.73950898 37 44 C35 47 35 47 32 48 C29.78910055 48.08358958 27.57573922 48.10731764 25.36328125 48.09765625 C23.41518555 48.09282227 23.41518555 48.09282227 21.42773438 48.08789062 C20.05598892 48.07953531 18.68424413 48.07107037 17.3125 48.0625 C15.92903805 48.05748335 14.54557437 48.05292073 13.16210938 48.04882812 C9.77469605 48.03702529 6.38736967 48.02056019 3 48 C3.01571045 49.33961792 3.01571045 49.33961792 3.03173828 50.70629883 C3.06583592 54.02175477 3.09090637 57.33702421 3.10986328 60.65258789 C3.119917 62.08718812 3.13356194 63.52176789 3.15087891 64.95629883 C3.17515549 67.01909438 3.18648919 69.08161885 3.1953125 71.14453125 C3.21102295 73.00621948 3.21102295 73.00621948 3.22705078 74.90551758 C3 78 3 78 1 81 C-1.78061975 81.92687325 -3.42051859 82.12193396 -6.2878418 82.11352539 C-7.14850754 82.11344986 -8.00917328 82.11337433 -8.8959198 82.11329651 C-9.82100845 82.10813522 -10.74609711 82.10297394 -11.69921875 82.09765625 C-12.64940384 82.0962413 -13.59958893 82.09482635 -14.5785675 82.09336853 C-17.61491029 82.08776875 -20.65117948 82.07521632 -23.6875 82.0625 C-25.74544164 82.05748497 -27.80338444 82.05292207 -29.86132812 82.04882812 C-34.90758046 82.0377994 -39.95377775 82.02053493 -45 82 C-45.09888089 75.80701358 -45.17147486 69.61448668 -45.21972656 63.42089844 C-45.23984126 61.31404618 -45.26713667 59.20724975 -45.30175781 57.10058594 C-45.35028168 54.07212553 -45.37297016 51.04440322 -45.390625 48.015625 C-45.41127014 47.07382385 -45.43191528 46.13202271 -45.45318604 45.16168213 C-45.45538744 38.74517944 -45.45538744 38.74517944 -43.41015625 35.3984375 C-40.13999443 33.50100163 -37.81791924 33.545459 -34.046875 33.609375 C-33.38665344 33.61503479 -32.72643188 33.62069458 -32.04620361 33.62652588 C-29.94671737 33.6488377 -27.8489663 33.69901686 -25.75 33.75 C-24.3229414 33.77007206 -22.89585592 33.78832161 -21.46875 33.8046875 C-17.97860707 33.84868307 -14.48947301 33.91767124 -11 34 C-11.02094727 33.1121582 -11.04189453 32.22431641 -11.06347656 31.30957031 C-11.13175677 28.00705545 -11.1818487 24.7052933 -11.21972656 21.40234375 C-11.23980982 19.97448879 -11.26708252 18.54671575 -11.30175781 17.11914062 C-11.35042669 15.06359632 -11.37299967 13.00914145 -11.390625 10.953125 C-11.41157227 9.71723633 -11.43251953 8.48134766 -11.45410156 7.20800781 C-11 4 -11 4 -9.19824219 1.59277344 C-6.03033888 -0.70258431 -3.81111295 -0.48505074 0 0 Z " fill="#080808" transform="translate(45,147)"/>
<path d="M0 0 C11.71458651 5.87356351 18.48949542 13.78955455 23 26 C25.75558258 36.38642666 24.14401476 47.18099915 19.3125 56.625 C13.60955325 66.43078614 5.72203033 72.6609741 -5.41796875 75.6484375 C-17.59007414 77.30575896 -28.38267135 76.35865357 -38.6875 69.4375 C-46.24795751 63.59873084 -52.53187267 55.64960056 -54 46 C-54.56853703 37.87224099 -55.07087375 29.67106709 -52 22 C-50 24 -50 24 -49.875 27.125 C-49.91625 28.07375 -49.9575 29.0225 -50 30 C-47.03 30 -44.06 30 -41 30 C-41 32.97 -41 35.94 -41 39 C-43.97 39 -46.94 39 -50 39 C-50 41.97 -50 44.94 -50 48 C-47.03 48 -44.06 48 -41 48 C-41 50.97 -41 53.94 -41 57 C-38.03 57 -35.06 57 -32 57 C-32 54.03 -32 51.06 -32 48 C-29.03 48 -26.06 48 -23 48 C-23 50.97 -23 53.94 -23 57 C-20.03 57 -17.06 57 -14 57 C-14 54.03 -14 51.06 -14 48 C-9.545 47.505 -9.545 47.505 -5 47 C-4.67 44.36 -4.34 41.72 -4 39 C-1.03 39 1.94 39 5 39 C5 36.03 5 33.06 5 30 C7.97 30 10.94 30 14 30 C14 27.03 14 24.06 14 21 C11.03 21 8.06 21 5 21 C4.505 16.545 4.505 16.545 4 12 C1.36 11.67 -1.28 11.34 -4 11 C-4 8.03 -4 5.06 -4 2 C-6.7920301 2.1404983 -9.58349796 2.28715383 -12.375 2.4375 C-13.1690625 2.47681641 -13.963125 2.51613281 -14.78125 2.55664062 C-19.02601221 2.68893404 -19.02601221 2.68893404 -23 4 C-23 3.34 -23 2.68 -23 2 C-23.99 1.67 -24.98 1.34 -26 1 C-26.33 0.34 -26.66 -0.32 -27 -1 C-19.01524822 -3.66158393 -7.92886857 -2.85896703 0 0 Z " fill="#F0F0F0" transform="translate(142,16)"/>
<path d="M0 0 C0.99 0.33 1.98 0.66 3 1 C4.10546875 3.5546875 4.10546875 3.5546875 5.1875 6.875 C7.38178724 12.95611921 10.24847862 17.59701392 14.23046875 22.66015625 C15.79115689 24.72384763 16.94154158 26.64967951 18 29 C17.14019531 29.38929687 16.28039062 29.77859375 15.39453125 30.1796875 C-0.09868752 37.51235592 -14.71199598 48.28431862 -24 63 C-24 63.99 -24 64.98 -24 66 C-22.33763229 67.43794622 -22.33763229 67.43794622 -20.1875 68.625 C-19.47980469 69.05039063 -18.77210937 69.47578125 -18.04296875 69.9140625 C-15.90043513 71.12543482 -15.90043513 71.12543482 -13 72 C-12.71125 71.401875 -12.4225 70.80375 -12.125 70.1875 C-11 68 -11 68 -9 65 C-5.96133201 64.58862798 -3.07840297 64.86806844 0 65 C0 67.97 0 70.94 0 74 C2.97 74 5.94 74 9 74 C9 76.97 9 79.94 9 83 C6.03 83 3.06 83 0 83 C0 85.97 0 88.94 0 92 C2.97 92 5.94 92 9 92 C9 94.97 9 97.94 9 101 C6.03 101 3.06 101 0 101 C0 103.97 0 106.94 0 110 C-2.97 110 -5.94 110 -9 110 C-9 111.98 -9 113.96 -9 116 C-4.545 115.505 -4.545 115.505 0 115 C0.495 113.02 0.495 113.02 1 111 C3.64 111 6.28 111 9 111 C9.625 114.375 9.625 114.375 10 118 C9.34 118.66 8.68 119.32 8 120 C7.01 119.01 7.01 119.01 6 118 C2.79461597 117.62653332 2.79461597 117.62653332 -0.9765625 117.5859375 C-1.66181 117.56657135 -2.3470575 117.5472052 -3.05307007 117.5272522 C-5.24358644 117.46743169 -7.4341553 117.42106244 -9.625 117.375 C-11.10939802 117.33682237 -12.59377384 117.29777076 -14.078125 117.2578125 C-17.71854685 117.16172916 -21.35913436 117.07770718 -25 117 C-25.14303566 112.64007539 -25.2854351 108.2801306 -25.42724609 103.92016602 C-25.47557386 102.43708739 -25.5240752 100.95401441 -25.57275391 99.47094727 C-25.64270984 97.33871906 -25.7120407 95.2064713 -25.78125 93.07421875 C-25.82314453 91.79119873 -25.86503906 90.50817871 -25.90820312 89.1862793 C-25.96759403 87.12481453 -26 85.06232011 -26 83 C-23.36 83 -20.72 83 -18 83 C-18 80.03 -18 77.06 -18 74 C-20.97 74 -23.94 74 -27 74 C-27.125 66.25 -27.125 66.25 -26 64 C-27.485 64.495 -27.485 64.495 -29 65 C-31.3406065 64.72230092 -33.67624308 64.39460023 -36 64 C-36 61.36 -36 58.72 -36 56 C-33.36 55.67 -30.72 55.34 -28 55 C-27.67 52.03 -27.34 49.06 -27 46 C-24.03 46 -21.06 46 -18 46 C-18 43.03 -18 40.06 -18 37 C-15.03 37 -12.06 37 -9 37 C-9 34.03 -9 31.06 -9 28 C-6.03 28 -3.06 28 0 28 C0 25.03 0 22.06 0 19 C-2.97 19 -5.94 19 -9 19 C-9.09765625 12.84765625 -9.09765625 12.84765625 -9 11 C-7.03177114 9.03177114 -3.65191291 9.33751619 -1 9 C-0.67 6.03 -0.34 3.06 0 0 Z " fill="#F0F0F0" transform="translate(73,64)"/>
<path d="M0 0 C2.05078125 0.03255208 4.1015625 0.06510417 6.15234375 0.09765625 C6.48234375 3.06765625 6.81234375 6.03765625 7.15234375 9.09765625 C10.12234375 9.09765625 13.09234375 9.09765625 16.15234375 9.09765625 C16.15234375 12.06765625 16.15234375 15.03765625 16.15234375 18.09765625 C19.12234375 18.09765625 22.09234375 18.09765625 25.15234375 18.09765625 C25.15234375 21.06765625 25.15234375 24.03765625 25.15234375 27.09765625 C28.12234375 27.09765625 31.09234375 27.09765625 34.15234375 27.09765625 C34.15234375 30.06765625 34.15234375 33.03765625 34.15234375 36.09765625 C31.18234375 36.09765625 28.21234375 36.09765625 25.15234375 36.09765625 C25.15234375 39.06765625 25.15234375 42.03765625 25.15234375 45.09765625 C22.4435504 46.45205293 20.14301107 46.16267076 17.15234375 46.09765625 C17.00796875 47.39703125 16.86359375 48.69640625 16.71484375 50.03515625 C16.27734375 53.97265625 16.27734375 53.97265625 15.15234375 55.09765625 C12.48175524 55.23880786 9.82802137 55.14012732 7.15234375 55.09765625 C7.15234375 52.12765625 7.15234375 49.15765625 7.15234375 46.09765625 C9.79234375 45.76765625 12.43234375 45.43765625 15.15234375 45.09765625 C15.48234375 42.12765625 15.81234375 39.15765625 16.15234375 36.09765625 C12.85234375 36.09765625 9.55234375 36.09765625 6.15234375 36.09765625 C6.15234375 39.06765625 6.15234375 42.03765625 6.15234375 45.09765625 C3.18234375 45.09765625 0.21234375 45.09765625 -2.84765625 45.09765625 C-2.84765625 48.39765625 -2.84765625 51.69765625 -2.84765625 55.09765625 C0.12234375 55.09765625 3.09234375 55.09765625 6.15234375 55.09765625 C6.15234375 58.06765625 6.15234375 61.03765625 6.15234375 64.09765625 C3.18234375 64.09765625 0.21234375 64.09765625 -2.84765625 64.09765625 C-2.84765625 67.06765625 -2.84765625 70.03765625 -2.84765625 73.09765625 C0.12234375 73.09765625 3.09234375 73.09765625 6.15234375 73.09765625 C6.15234375 76.06765625 6.15234375 79.03765625 6.15234375 82.09765625 C9.45234375 82.09765625 12.75234375 82.09765625 16.15234375 82.09765625 C16.15234375 85.06765625 16.15234375 88.03765625 16.15234375 91.09765625 C15.16234375 91.42765625 14.17234375 91.75765625 13.15234375 92.09765625 C12.14638078 91.14558415 11.14772812 90.18578279 10.15234375 89.22265625 C9.59546875 88.68898438 9.03859375 88.1553125 8.46484375 87.60546875 C7.15234375 86.09765625 7.15234375 86.09765625 7.15234375 84.09765625 C6.56195313 83.83210938 5.9715625 83.5665625 5.36328125 83.29296875 C3.09518323 82.06675321 1.61882277 80.76414037 -0.22265625 78.97265625 C-6.79362809 73.0587816 -14.94004979 68.95359307 -22.84765625 65.09765625 C-22.84765625 64.10765625 -22.84765625 63.11765625 -22.84765625 62.09765625 C-22.18765625 62.09765625 -21.52765625 62.09765625 -20.84765625 62.09765625 C-20.58726562 61.53949219 -20.326875 60.98132813 -20.05859375 60.40625 C-18.71113048 57.83737647 -17.11786862 55.54894714 -15.47265625 53.16015625 C-6.81459559 39.45909158 -6.31530409 24.70353377 -8.84765625 9.09765625 C-6.86765625 9.09765625 -4.88765625 9.09765625 -2.84765625 9.09765625 C-2.84765625 12.06765625 -2.84765625 15.03765625 -2.84765625 18.09765625 C0.12234375 18.09765625 3.09234375 18.09765625 6.15234375 18.09765625 C6.15234375 15.12765625 6.15234375 12.15765625 6.15234375 9.09765625 C4.85296875 9.11828125 3.55359375 9.13890625 2.21484375 9.16015625 C0.86068742 9.18165079 -0.49521708 9.16913824 -1.84765625 9.09765625 C-2.84765625 8.09765625 -2.84765625 8.09765625 -2.97265625 4.59765625 C-2.81376564 0.14871911 -2.81376564 0.14871911 0 0 Z " fill="#F0F0F0" transform="translate(185.84765625,27.90234375)"/>
<path d="M0 0 C9.14397274 2.21225147 18.07754761 1.37615531 26.9609375 -1.50390625 C34.18196872 -2.88809856 40.01100383 -0.49970698 46.375 2.625 C47.48766235 3.15867187 47.48766235 3.15867187 48.62280273 3.703125 C53.85546352 6.2753745 58.42064086 9.14655605 62.875 12.9375 C62.545 13.5975 62.215 14.2575 61.875 14.9375 C60.885 14.9375 59.895 14.9375 58.875 14.9375 C58.875 17.9075 58.875 20.8775 58.875 23.9375 C55.905 23.9375 52.935 23.9375 49.875 23.9375 C49.875 20.9675 49.875 17.9975 49.875 14.9375 C45.915 15.4325 45.915 15.4325 41.875 15.9375 C41.689375 17.8865625 41.689375 17.8865625 41.5 19.875 C41.2890625 22.08984375 41.2890625 22.08984375 40.875 23.9375 C37.80609813 25.47195094 35.17405734 24.48734289 31.875 23.9375 C31.875 21.2975 31.875 18.6575 31.875 15.9375 C35.835 15.4425 35.835 15.4425 39.875 14.9375 C40.205 11.9675 40.535 8.9975 40.875 5.9375 C37.905 5.9375 34.935 5.9375 31.875 5.9375 C31.875 8.9075 31.875 11.8775 31.875 14.9375 C28.575 14.9375 25.275 14.9375 21.875 14.9375 C21.875 11.9675 21.875 8.9975 21.875 5.9375 C18.905 5.9375 15.935 5.9375 12.875 5.9375 C12.875 8.9075 12.875 11.8775 12.875 14.9375 C9.905 14.9375 6.935 14.9375 3.875 14.9375 C3.875 11.9675 3.875 8.9975 3.875 5.9375 C0.905 5.9375 -2.065 5.9375 -5.125 5.9375 C-5.125 8.9075 -5.125 11.8775 -5.125 14.9375 C-9.085 15.4325 -9.085 15.4325 -13.125 15.9375 C-13.24875 17.236875 -13.3725 18.53625 -13.5 19.875 C-13.7109375 22.08984375 -13.7109375 22.08984375 -14.125 23.9375 C-17.19390187 25.47195094 -19.82594266 24.48734289 -23.125 23.9375 C-23.125 21.2975 -23.125 18.6575 -23.125 15.9375 C-19.165 15.4425 -19.165 15.4425 -15.125 14.9375 C-14.795 11.9675 -14.465 8.9975 -14.125 5.9375 C-17.095 5.9375 -20.065 5.9375 -23.125 5.9375 C-23.125 8.9075 -23.125 11.8775 -23.125 14.9375 C-26.425 14.9375 -29.725 14.9375 -33.125 14.9375 C-33.125 17.9075 -33.125 20.8775 -33.125 23.9375 C-36.095 23.9375 -39.065 23.9375 -42.125 23.9375 C-43.11988833 21.12840354 -43.58208025 19.81057587 -43.125 16.9375 C-33.93243135 4.80710013 -14.81776684 -5.03804073 0 0 Z M21.875 14.9375 C21.875 17.9075 21.875 20.8775 21.875 23.9375 C18.905 23.9375 15.935 23.9375 12.875 23.9375 C12.83258277 21.60455225 12.83407063 19.27047433 12.875 16.9375 C14.88865086 14.92384914 19.10594551 14.9375 21.875 14.9375 Z " fill="#F0F0F0" transform="translate(115.125,104.0625)"/>
<path d="M0 0 C1.65 1.32 3.3 2.64 5 4 C8.27597454 4.63635465 8.27597454 4.63635465 11.83203125 4.609375 C13.12431641 4.64160156 14.41660156 4.67382812 15.74804688 4.70703125 C17.10286009 4.7217735 18.45767798 4.73609112 19.8125 4.75 C21.18688639 4.77817759 22.56123805 4.80810754 23.93554688 4.83984375 C27.2904241 4.91047274 30.64460896 4.96320774 34 5 C34.029729 6.24088379 34.029729 6.24088379 34.06005859 7.50683594 C34.15531212 11.25487806 34.26499109 15.00236317 34.375 18.75 C34.4059375 20.05195313 34.436875 21.35390625 34.46875 22.6953125 C34.52675781 24.57089844 34.52675781 24.57089844 34.5859375 26.484375 C34.6173584 27.63647461 34.6487793 28.78857422 34.68115234 29.97558594 C35.11208678 34.06319377 36.11747306 36.11747306 39 39 C26.13 39 13.26 39 0 39 C0 26.13 0 13.26 0 0 Z " fill="#FCFCFC" transform="translate(0,190)"/>
<path d="M0 0 C2.97 0 5.94 0 9 0 C9 2.97 9 5.94 9 9 C11.97 9 14.94 9 18 9 C18 6.03 18 3.06 18 0 C20.97 0 23.94 0 27 0 C27 2.97 27 5.94 27 9 C29.97 9 32.94 9 36 9 C36 11.97 36 14.94 36 18 C32.04 18.495 32.04 18.495 28 19 C27.67 21.64 27.34 24.28 27 27 C11.82 27 -3.36 27 -19 27 C-19 24.36 -19 21.72 -19 19 C-15.04 18.505 -15.04 18.505 -11 18 C-10.67 15.03 -10.34 12.06 -10 9 C-5.545 8.505 -5.545 8.505 -1 8 C-0.67 5.36 -0.34 2.72 0 0 Z " fill="#F6F6F6" transform="translate(138,202)"/>
<path d="M0 0 C3.3 0 6.6 0 10 0 C10 2.97 10 5.94 10 9 C7.03 9 4.06 9 1 9 C1.020625 10.299375 1.04125 11.59875 1.0625 12.9375 C1.08399454 14.29165633 1.07148199 15.64756083 1 17 C0 18 0 18 -2.06640625 18.09765625 C-2.89011719 18.08605469 -3.71382812 18.07445312 -4.5625 18.0625 C-5.38878906 18.05347656 -6.21507812 18.04445312 -7.06640625 18.03515625 C-8.02353516 18.01775391 -8.02353516 18.01775391 -9 18 C-8.98839844 18.63808594 -8.97679688 19.27617187 -8.96484375 19.93359375 C-8.95582031 20.75988281 -8.94679688 21.58617187 -8.9375 22.4375 C-8.92589844 23.26121094 -8.91429688 24.08492187 -8.90234375 24.93359375 C-9 27 -9 27 -10 28 C-12.67058851 28.14115161 -15.32432238 28.04247107 -18 28 C-18 30.64 -18 33.28 -18 36 C-24.93 36 -31.86 36 -39 36 C-37.68 34.68 -36.36 33.36 -35 32 C-34.35856672 28.71883924 -34.35856672 28.71883924 -34.390625 25.046875 C-34.37408875 24.38665344 -34.35755249 23.72643188 -34.34051514 23.04620361 C-34.29211549 20.94737374 -34.27068481 18.84926778 -34.25 16.75 C-34.22183317 15.3228804 -34.19190472 13.89579441 -34.16015625 12.46875 C-34.08305351 8.97883653 -34.04247193 5.49119231 -34 2 C-25.42 2 -16.84 2 -8 2 C-8.33 4.31 -8.66 6.62 -9 9 C-6.03 9 -3.06 9 0 9 C0 6.03 0 3.06 0 0 Z " fill="#FDFDFD" transform="translate(82,193)"/>
<path d="M0 0 C3.3 0 6.6 0 10 0 C10 2.97 10 5.94 10 9 C7.36 9.33 4.72 9.66 2 10 C1.67 12.64 1.34 15.28 1 18 C3.64 18 6.28 18 9 18 C9.144375 16.700625 9.28875 15.40125 9.4375 14.0625 C9.875 10.125 9.875 10.125 11 9 C13.67058851 8.85884839 16.32432238 8.95752893 19 9 C19 11.97 19 14.94 19 18 C21.97 18 24.94 18 28 18 C28 27.24 28 36.48 28 46 C25.03 46 22.06 46 19 46 C19 43.03 19 40.06 19 37 C16.03 37 13.06 37 10 37 C10 34.03 10 31.06 10 28 C7.03 28 4.06 28 1 28 C-0.4783226 25.04335481 -0.06032783 22.25770263 0 19 C-3.96 19.495 -3.96 19.495 -8 20 C-8 22.31 -8 24.62 -8 27 C-5.36 27.33 -2.72 27.66 0 28 C0 30.97 0 33.94 0 37 C-2.97 37 -5.94 37 -9 37 C-9 34.03 -9 31.06 -9 28 C-11.31 28 -13.62 28 -16 28 C-16.66 25.03 -17.32 22.06 -18 19 C-15.04335481 17.5216774 -12.25770263 17.93967217 -9 18 C-9 15.03 -9 12.06 -9 9 C-6.03 9 -3.06 9 0 9 C0 6.03 0 3.06 0 0 Z " fill="#FCFCFC" transform="translate(192,9)"/>
<path d="M0 0 C2.05078125 0.03255208 4.1015625 0.06510417 6.15234375 0.09765625 C7.17128451 5.94653668 7.27032828 11.60684794 7.21484375 17.53515625 C7.21033203 18.45748047 7.20582031 19.37980469 7.20117188 20.33007812 C7.18948334 22.58596593 7.17155144 24.84181993 7.15234375 27.09765625 C10.12234375 27.09765625 13.09234375 27.09765625 16.15234375 27.09765625 C16.15234375 30.06765625 16.15234375 33.03765625 16.15234375 36.09765625 C13.51234375 36.42765625 10.87234375 36.75765625 8.15234375 37.09765625 C7.82234375 39.73765625 7.49234375 42.37765625 7.15234375 45.09765625 C9.79234375 45.09765625 12.43234375 45.09765625 15.15234375 45.09765625 C15.36890625 43.14859375 15.36890625 43.14859375 15.58984375 41.16015625 C16.02734375 37.22265625 16.02734375 37.22265625 17.15234375 36.09765625 C19.82293226 35.95650464 22.47666613 36.05518518 25.15234375 36.09765625 C25.17923591 37.57672517 25.19868996 39.05593108 25.21484375 40.53515625 C25.22644531 41.35886719 25.23804688 42.18257812 25.25 43.03125 C25.15234375 45.09765625 25.15234375 45.09765625 24.15234375 46.09765625 C21.48175524 46.23880786 18.82802137 46.14012732 16.15234375 46.09765625 C16.15234375 49.06765625 16.15234375 52.03765625 16.15234375 55.09765625 C13.18234375 55.09765625 10.21234375 55.09765625 7.15234375 55.09765625 C6.82234375 55.75765625 6.49234375 56.41765625 6.15234375 57.09765625 C6.15234375 53.46765625 6.15234375 49.83765625 6.15234375 46.09765625 C3.51234375 46.42765625 0.87234375 46.75765625 -1.84765625 47.09765625 C-1.84765625 48.41765625 -1.84765625 49.73765625 -1.84765625 51.09765625 C-5.14765625 51.09765625 -8.44765625 51.09765625 -11.84765625 51.09765625 C-11.84765625 49.11765625 -11.84765625 47.13765625 -11.84765625 45.09765625 C-8.87765625 45.09765625 -5.90765625 45.09765625 -2.84765625 45.09765625 C-2.84765625 42.12765625 -2.84765625 39.15765625 -2.84765625 36.09765625 C0.12234375 36.09765625 3.09234375 36.09765625 6.15234375 36.09765625 C6.15234375 33.12765625 6.15234375 30.15765625 6.15234375 27.09765625 C3.18234375 27.09765625 0.21234375 27.09765625 -2.84765625 27.09765625 C-2.84765625 24.12765625 -2.84765625 21.15765625 -2.84765625 18.09765625 C0.12234375 18.09765625 3.09234375 18.09765625 6.15234375 18.09765625 C6.15234375 15.12765625 6.15234375 12.15765625 6.15234375 9.09765625 C3.18234375 9.09765625 0.21234375 9.09765625 -2.84765625 9.09765625 C-2.9453125 2.9453125 -2.9453125 2.9453125 -2.84765625 1.09765625 C-1.84765625 0.09765625 -1.84765625 0.09765625 0 0 Z " fill="#FDFDFD" transform="translate(75.84765625,128.90234375)"/>
<path d="M0 0 C2.97 0 5.94 0 9 0 C9 2.97 9 5.94 9 9 C6.36 9.33 3.72 9.66 1 10 C1 12.64 1 15.28 1 18 C3.64 18 6.28 18 9 18 C9 19.65 9 21.3 9 23 C28.8 23.495 28.8 23.495 49 24 C49 24.33 49 24.66 49 25 C16.66 25 -15.68 25 -49 25 C-49 24.67 -49 24.34 -49 24 C-45.04 24 -41.08 24 -37 24 C-37 22.35 -37 20.7 -37 19 C-34.03 18.67 -31.06 18.34 -28 18 C-28 19.98 -28 21.96 -28 24 C-25.03 24 -22.06 24 -19 24 C-19 22.02 -19 20.04 -19 18 C-16.03 18 -13.06 18 -10 18 C-10 15.03 -10 12.06 -10 9 C-6.7 9 -3.4 9 0 9 C0 6.03 0 3.06 0 0 Z M-28 9 C-25.03 9 -22.06 9 -19 9 C-19 11.97 -19 14.94 -19 18 C-21.97 18 -24.94 18 -28 18 C-28 15.03 -28 12.06 -28 9 Z " fill="#FCFCFC" transform="translate(147,156)"/>
<path d="M0 0 C3.3 0 6.6 0 10 0 C10.09765625 6.93359375 10.09765625 6.93359375 10 9 C9 10 9 10 7.15234375 10.09765625 C5.1015625 10.06510417 3.05078125 10.03255208 1 10 C1 12.97 1 15.94 1 19 C4.96 18.505 4.96 18.505 9 18 C9.144375 16.700625 9.28875 15.40125 9.4375 14.0625 C9.875 10.125 9.875 10.125 11 9 C13.33297433 8.95907063 15.66705225 8.95758277 18 9 C18.33 6.03 18.66 3.06 19 0 C21.31 0 23.62 0 26 0 C25.47479395 8.40329681 21.7080239 13.64469957 15.625 19.3125 C10.66202456 23.51575208 6.67169353 26 0 26 C0 23.69 0 21.38 0 19 C-2.97 19 -5.94 19 -9 19 C-9 15.7 -9 12.4 -9 9 C-6.03 9 -3.06 9 0 9 C0 6.03 0 3.06 0 0 Z " fill="#FBFBFB" transform="translate(137,64)"/>
<path d="M0 0 C2.97 0 5.94 0 9 0 C9 16.5 9 33 9 50 C8.67 50 8.34 50 8 50 C7.81566406 49.18660156 7.63132813 48.37320313 7.44140625 47.53515625 C5.57813455 40.17316274 3.12878661 33.7477213 -0.4375 27.0625 C-0.80866943 26.36584229 -1.17983887 25.66918457 -1.56225586 24.95141602 C-4.07199926 20.38273225 -6.90178146 16.19106458 -10 12 C-9.67 11.34 -9.34 10.68 -9 10 C-6.35139573 9.40644386 -3.70802678 9.25790731 -1 9 C-0.67 6.03 -0.34 3.06 0 0 Z " fill="#EEEEEE" transform="translate(211,110)"/>
<path d="M0 0 C2.05078125 0.03255208 4.1015625 0.06510417 6.15234375 0.09765625 C7.17128451 5.94653668 7.27032828 11.60684794 7.21484375 17.53515625 C7.21033203 18.45748047 7.20582031 19.37980469 7.20117188 20.33007812 C7.18948334 22.58596593 7.17155144 24.84181993 7.15234375 27.09765625 C10.12234375 27.09765625 13.09234375 27.09765625 16.15234375 27.09765625 C16.15234375 30.06765625 16.15234375 33.03765625 16.15234375 36.09765625 C12.85234375 36.09765625 9.55234375 36.09765625 6.15234375 36.09765625 C6.15234375 33.12765625 6.15234375 30.15765625 6.15234375 27.09765625 C3.18234375 27.09765625 0.21234375 27.09765625 -2.84765625 27.09765625 C-2.84765625 24.12765625 -2.84765625 21.15765625 -2.84765625 18.09765625 C0.12234375 18.09765625 3.09234375 18.09765625 6.15234375 18.09765625 C6.15234375 15.12765625 6.15234375 12.15765625 6.15234375 9.09765625 C3.18234375 9.09765625 0.21234375 9.09765625 -2.84765625 9.09765625 C-2.9453125 2.9453125 -2.9453125 2.9453125 -2.84765625 1.09765625 C-1.84765625 0.09765625 -1.84765625 0.09765625 0 0 Z M-2.84765625 36.09765625 C0.12234375 36.09765625 3.09234375 36.09765625 6.15234375 36.09765625 C6.15234375 39.06765625 6.15234375 42.03765625 6.15234375 45.09765625 C3.18234375 45.09765625 0.21234375 45.09765625 -2.84765625 45.09765625 C-2.84765625 42.12765625 -2.84765625 39.15765625 -2.84765625 36.09765625 Z M-11.84765625 45.09765625 C-8.87765625 45.09765625 -5.90765625 45.09765625 -2.84765625 45.09765625 C-2.84765625 47.07765625 -2.84765625 49.05765625 -2.84765625 51.09765625 C-5.81765625 51.09765625 -8.78765625 51.09765625 -11.84765625 51.09765625 C-11.84765625 49.11765625 -11.84765625 47.13765625 -11.84765625 45.09765625 Z " fill="#FDFDFD" transform="translate(130.84765625,128.90234375)"/>
<path d="M0 0 C3.3 0 6.6 0 10 0 C10.09765625 6.93359375 10.09765625 6.93359375 10 9 C9.67 9.33 9.34 9.66 9 10 C6.36 10 3.72 10 1 10 C1 18.91 1 27.82 1 37 C3.97 37 6.94 37 10 37 C10 39.97 10 42.94 10 46 C7.36 46.33 4.72 46.66 2 47 C1.67 49.31 1.34 51.62 1 54 C0.67 54 0.34 54 0 54 C0 48.39 0 42.78 0 37 C-2.97 37 -5.94 37 -9 37 C-9 34.03 -9 31.06 -9 28 C-6.03 28 -3.06 28 0 28 C0 25.03 0 22.06 0 19 C-2.97 19 -5.94 19 -9 19 C-9 15.7 -9 12.4 -9 9 C-6.03 9 -3.06 9 0 9 C0 6.03 0 3.06 0 0 Z " fill="#FDFDFD" transform="translate(27,64)"/>
<path d="M0 0 C3.3 0 6.6 0 10 0 C10 2.97 10 5.94 10 9 C7.03 9 4.06 9 1 9 C1.020625 10.299375 1.04125 11.59875 1.0625 12.9375 C1.08399454 14.29165633 1.07148199 15.64756083 1 17 C0 18 0 18 -2.06640625 18.09765625 C-5.53320312 18.04882812 -5.53320312 18.04882812 -9 18 C-9 15.03 -9 12.06 -9 9 C-6.03 9 -3.06 9 0 9 C0 6.03 0 3.06 0 0 Z M-18 18 C-15.03 18 -12.06 18 -9 18 C-8.90234375 24.93359375 -8.90234375 24.93359375 -9 27 C-10 28 -10 28 -11.84765625 28.09765625 C-13.8984375 28.06510417 -15.94921875 28.03255208 -18 28 C-18 30.64 -18 33.28 -18 36 C-20.97 36 -23.94 36 -27 36 C-27.09765625 29.84765625 -27.09765625 29.84765625 -27 28 C-26 27 -26 27 -24.15234375 26.90234375 C-22.1015625 26.93489583 -20.05078125 26.96744792 -18 27 C-18 24.03 -18 21.06 -18 18 Z " fill="#FDFDFD" transform="translate(82,193)"/>
<path d="M0 0 C8.91 0 17.82 0 27 0 C27 2.97 27 5.94 27 9 C24.03 9 21.06 9 18 9 C18 11.97 18 14.94 18 18 C15.03 18 12.06 18 9 18 C9 15.03 9 12.06 9 9 C6.03 9 3.06 9 0 9 C0 6.03 0 3.06 0 0 Z " fill="#F6F6F6" transform="translate(92,55)"/>
<path d="M0 0 C2.64 0 5.28 0 8 0 C8 2.97 8 5.94 8 9 C6.02 9 4.04 9 2 9 C2 16.92 2 24.84 2 33 C3.98 33 5.96 33 8 33 C8 31.35 8 29.7 8 28 C10.97 27.67 13.94 27.34 17 27 C17 28.98 17 30.96 17 33 C21.455 32.505 21.455 32.505 26 32 C26.33 30.68 26.66 29.36 27 28 C29.64 28 32.28 28 35 28 C35.625 31.375 35.625 31.375 36 35 C35.34 35.66 34.68 36.32 34 37 C33.34 36.34 32.68 35.68 32 35 C28.79461597 34.62653332 28.79461597 34.62653332 25.0234375 34.5859375 C24.33819 34.56657135 23.6529425 34.5472052 22.94692993 34.5272522 C20.75641356 34.46743169 18.5658447 34.42106244 16.375 34.375 C14.89060198 34.33682237 13.40622616 34.29777076 11.921875 34.2578125 C8.28145315 34.16172916 4.64086564 34.07770718 1 34 C0.85696434 29.64007539 0.7145649 25.2801306 0.57275391 20.92016602 C0.52442614 19.43708739 0.4759248 17.95401441 0.42724609 16.47094727 C0.35729016 14.33871906 0.2879593 12.2064713 0.21875 10.07421875 C0.17685547 8.79119873 0.13496094 7.50817871 0.09179688 6.1862793 C0.03240597 4.12481453 0 2.06232011 0 0 Z M17 18 C19.97 18 22.94 18 26 18 C26 20.97 26 23.94 26 27 C23.03 27 20.06 27 17 27 C17 24.03 17 21.06 17 18 Z " fill="#E2E2E2" transform="translate(47,147)"/>
<path d="M0 0 C4.95488978 7.43233467 7.32957516 15.05685758 6 24 C4.5625 27.6875 4.5625 27.6875 2 30 C-1.06503338 30.48006547 -3.92637413 30.35464914 -7 30 C-7.33 30.99 -7.66 31.98 -8 33 C-10.97 33 -13.94 33 -17 33 C-17 31.35 -17 29.7 -17 28 C-14.03 28 -11.06 28 -8 28 C-8 25.03 -8 22.06 -8 19 C-4.7 19 -1.4 19 2 19 C2 16.03 2 13.06 2 10 C-0.97 10 -3.94 10 -7 10 C-7 7.03 -7 4.06 -7 1 C-3.535 0.505 -3.535 0.505 0 0 Z " fill="#EFEFEF" transform="translate(200,146)"/>
<path d="M0 0 C0.33 0 0.66 0 1 0 C1 2.31 1 4.62 1 7 C2.98 7 4.96 7 7 7 C7 9.97 7 12.94 7 16 C9.97 16 12.94 16 16 16 C16 18.97 16 21.94 16 25 C12.04 25.495 12.04 25.495 8 26 C7.67 28.64 7.34 31.28 7 34 C3.04 34 -0.92 34 -5 34 C-3.68 32.68 -2.36 31.36 -1 30 C-0.35856672 26.71883924 -0.35856672 26.71883924 -0.390625 23.046875 C-0.37408875 22.38665344 -0.35755249 21.72643188 -0.34051514 21.04620361 C-0.29211549 18.94737374 -0.27068481 16.84926778 -0.25 14.75 C-0.22183317 13.3228804 -0.19190472 11.89579441 -0.16015625 10.46875 C-0.08636237 6.97932391 -0.03673721 3.49003528 0 0 Z " fill="#F4F4F4" transform="translate(48,195)"/>
<path d="M0 0 C2.97 0 5.94 0 9 0 C9 2.97 9 5.94 9 9 C11.97 9 14.94 9 18 9 C18 6.03 18 3.06 18 0 C20.97 0 23.94 0 27 0 C28.23076923 6.4 28.23076923 6.4 27.0625 9.4375 C26.5365625 10.2109375 26.5365625 10.2109375 26 11 C23.69 11 21.38 11 19 11 C18.67 13.64 18.34 16.28 18 19 C15.03 19 12.06 19 9 19 C9 16.03 9 13.06 9 10 C6.03 10 3.06 10 0 10 C0 6.7 0 3.4 0 0 Z " fill="#FCFCFC" transform="translate(55,18)"/>
<path d="M0 0 C4.21814817 3.9700218 7.61227103 8.30840284 11 13 C10.01 14.485 10.01 14.485 9 16 C8.54860541 18.0492094 8.54860541 18.0492094 8.375 20.1875 C8.25125 21.445625 8.1275 22.70375 8 24 C5.03 24 2.06 24 -1 24 C-1 21.03 -1 18.06 -1 15 C-3.97 15 -6.94 15 -10 15 C-10 12.03 -10 9.06 -10 6 C-7.03 6 -4.06 6 -1 6 C-1.020625 5.195625 -1.04125 4.39125 -1.0625 3.5625 C-1 1 -1 1 0 0 Z " fill="#F3F3F3" transform="translate(184,123)"/>
<path d="M0 0 C2 2 2 2 2.125 5.125 C2.08375 6.07375 2.0425 7.0225 2 8 C4.97 8 7.94 8 11 8 C11 10.97 11 13.94 11 17 C8.03 17 5.06 17 2 17 C2 19.97 2 22.94 2 26 C4.97 26 7.94 26 11 26 C11 28.97 11 31.94 11 35 C8.29120665 36.35439668 5.99066732 36.06501451 3 36 C-0.78015998 28.78333095 -2.32984231 23.06407339 -2.25 15 C-2.25773437 14.21882813 -2.26546875 13.43765625 -2.2734375 12.6328125 C-2.25794398 8.03123632 -1.74828303 4.3290818 0 0 Z " fill="#EFEFEF" transform="translate(90,38)"/>
<path d="M0 0 C2.97 0 5.94 0 9 0 C9 2.97 9 5.94 9 9 C6.03 9 3.06 9 0 9 C0 6.03 0 3.06 0 0 Z M-9 9 C-6.03 9 -3.06 9 0 9 C0.09765625 15.93359375 0.09765625 15.93359375 0 18 C-1 19 -1 19 -2.84765625 19.09765625 C-4.8984375 19.06510417 -6.94921875 19.03255208 -9 19 C-9 21.64 -9 24.28 -9 27 C-11.97 27 -14.94 27 -18 27 C-18 24.03 -18 21.06 -18 18 C-15.03 18 -12.06 18 -9 18 C-9 15.03 -9 12.06 -9 9 Z " fill="#FEFEFE" transform="translate(18,202)"/>
<path d="M0 0 C2.97 0 5.94 0 9 0 C9 2.97 9 5.94 9 9 C6.03 9 3.06 9 0 9 C0 6.03 0 3.06 0 0 Z M-9 9 C-6.03 9 -3.06 9 0 9 C0.09765625 15.93359375 0.09765625 15.93359375 0 18 C-1 19 -1 19 -2.84765625 19.09765625 C-4.8984375 19.06510417 -6.94921875 19.03255208 -9 19 C-9 21.64 -9 24.28 -9 27 C-11.97 27 -14.94 27 -18 27 C-18.09765625 20.84765625 -18.09765625 20.84765625 -18 19 C-17 18 -17 18 -15.15234375 17.90234375 C-13.1015625 17.93489583 -11.05078125 17.96744792 -9 18 C-9 15.03 -9 12.06 -9 9 Z " fill="#FEFEFE" transform="translate(183,202)"/>
<path d="M0 0 C2.97 0 5.94 0 9 0 C9 2.97 9 5.94 9 9 C6.03 9 3.06 9 0 9 C0 6.03 0 3.06 0 0 Z M-9 9 C-6.03 9 -3.06 9 0 9 C0.09765625 15.93359375 0.09765625 15.93359375 0 18 C-1 19 -1 19 -2.84765625 19.09765625 C-4.8984375 19.06510417 -6.94921875 19.03255208 -9 19 C-9 21.64 -9 24.28 -9 27 C-11.97 27 -14.94 27 -18 27 C-18.09765625 20.84765625 -18.09765625 20.84765625 -18 19 C-17 18 -17 18 -15.15234375 17.90234375 C-13.1015625 17.93489583 -11.05078125 17.96744792 -9 18 C-9 15.03 -9 12.06 -9 9 Z " fill="#FEFEFE" transform="translate(128,202)"/>
<path d="M0 0 C1.98 0 3.96 0 6 0 C6.85298376 3.67387495 7.10789471 7.0447393 7.0625 10.8125 C7.05347656 11.78832031 7.04445312 12.76414063 7.03515625 13.76953125 C7.02355469 14.50558594 7.01195312 15.24164063 7 16 C5.6682373 16.02187378 5.6682373 16.02187378 4.30957031 16.04418945 C1.00672038 16.10534534 -2.29530915 16.17951378 -5.59765625 16.26245117 C-7.02527914 16.29564794 -8.45303163 16.32369631 -9.88085938 16.34643555 C-11.93675815 16.38008013 -13.99147512 16.43239562 -16.046875 16.48828125 C-17.90070801 16.52755737 -17.90070801 16.52755737 -19.79199219 16.56762695 C-23.39426409 16.78760822 -23.39426409 16.78760822 -27 20 C-27 16.7 -27 13.4 -27 10 C-24.03 10 -21.06 10 -18 10 C-18 11.65 -18 13.3 -18 15 C-13.545 14.505 -13.545 14.505 -9 14 C-9 12.35 -9 10.7 -9 9 C-6.03 9 -3.06 9 0 9 C0 6.03 0 3.06 0 0 Z " fill="#F7F7F7" transform="translate(27,165)"/>
<path d="M0 0 C2.97 0 5.94 0 9 0 C9 2.97 9 5.94 9 9 C5.7 9 2.4 9 -1 9 C-0.67 6.03 -0.34 3.06 0 0 Z M-10 9 C-7.03 9 -4.06 9 -1 9 C-1 11.97 -1 14.94 -1 18 C-3.97 18 -6.94 18 -10 18 C-10 15.03 -10 12.06 -10 9 Z M-10 18 C-10 20.97 -10 23.94 -10 27 C-12.97 27 -15.94 27 -19 27 C-19 24.36 -19 21.72 -19 19 C-11.125 18 -11.125 18 -10 18 Z " fill="#EEEEEE" transform="translate(193,202)"/>
<path d="M0 0 C2.97 0 5.94 0 9 0 C9 2.97 9 5.94 9 9 C5.7 9 2.4 9 -1 9 C-0.67 6.03 -0.34 3.06 0 0 Z M-10 9 C-7.03 9 -4.06 9 -1 9 C-1 11.97 -1 14.94 -1 18 C-3.97 18 -6.94 18 -10 18 C-10 15.03 -10 12.06 -10 9 Z M-10 18 C-10 20.97 -10 23.94 -10 27 C-12.97 27 -15.94 27 -19 27 C-19 24.36 -19 21.72 -19 19 C-11.125 18 -11.125 18 -10 18 Z " fill="#EEEEEE" transform="translate(138,202)"/>
<path d="M0 0 C2.97 0 5.94 0 9 0 C9 2.97 9 5.94 9 9 C5.7 9 2.4 9 -1 9 C-0.67 6.03 -0.34 3.06 0 0 Z M-10 9 C-7.03 9 -4.06 9 -1 9 C-1 11.97 -1 14.94 -1 18 C-3.97 18 -6.94 18 -10 18 C-10 15.03 -10 12.06 -10 9 Z M-10 18 C-10 20.97 -10 23.94 -10 27 C-12.97 27 -15.94 27 -19 27 C-19 24.36 -19 21.72 -19 19 C-11.125 18 -11.125 18 -10 18 Z " fill="#EEEEEE" transform="translate(83,202)"/>
<path d="M0 0 C2.97 0 5.94 0 9 0 C9 2.97 9 5.94 9 9 C6.03 9 3.06 9 0 9 C0 6.03 0 3.06 0 0 Z M0 9 C0 10.98 0 12.96 0 15 C25.41 15 50.82 15 77 15 C77 15.33 77 15.66 77 16 C44.66 16 12.32 16 -21 16 C-21 15.67 -21 15.34 -21 15 C-17.04 15 -13.08 15 -9 15 C-9 13.35 -9 11.7 -9 10 C-1.125 9 -1.125 9 0 9 Z " fill="#D8D8D8" transform="translate(119,165)"/>
<path d="M0 0 C2.97 0 5.94 0 9 0 C9 2.97 9 5.94 9 9 C11.97 9 14.94 9 18 9 C18 11.97 18 14.94 18 18 C15.68880208 18.1953125 13.37760417 18.390625 11.06640625 18.5859375 C10.38449219 18.72257812 9.70257813 18.85921875 9 19 C8.67 19.66 8.34 20.32 8 21 C7.60167969 20.32453125 7.20335937 19.6490625 6.79296875 18.953125 C6.26316406 18.06109375 5.73335937 17.1690625 5.1875 16.25 C4.66542969 15.36828125 4.14335937 14.4865625 3.60546875 13.578125 C2.08251991 11.00800784 2.08251991 11.00800784 0.28125 8.90625 C-1 7 -1 7 -0.6875 3.25 C-0.3471875 1.64125 -0.3471875 1.64125 0 0 Z " fill="#EDEDED" transform="translate(165,9)"/>
<path d="M0 0 C0.33 0 0.66 0 1 0 C1 6.27 1 12.54 1 19 C0.67 19 0.34 19 0 19 C0 17.35 0 15.7 0 14 C-1.98 14 -3.96 14 -6 14 C-5.67 11.03 -5.34 8.06 -5 5 C-3.35 5 -1.7 5 0 5 C0 3.35 0 1.7 0 0 Z M-15 14 C-12.03 14 -9.06 14 -6 14 C-6 16.97 -6 19.94 -6 23 C-8.97 23 -11.94 23 -15 23 C-15 20.03 -15 17.06 -15 14 Z M-24 23 C-21.03 23 -18.06 23 -15 23 C-14.67 24.98 -14.34 26.96 -14 29 C-17.3 29 -20.6 29 -24 29 C-24 27.02 -24 25.04 -24 23 Z " fill="#FEFEFE" transform="translate(33,151)"/>
<path d="M0 0 C1.65 0 3.3 0 5 0 C5 2.97 5 5.94 5 9 C3.02 9 1.04 9 -1 9 C-0.67 6.03 -0.34 3.06 0 0 Z M-10 9 C-7.03 9 -4.06 9 -1 9 C-1 11.97 -1 14.94 -1 18 C-3.97 18 -6.94 18 -10 18 C-10 15.03 -10 12.06 -10 9 Z M-10 18 C-10 20.97 -10 23.94 -10 27 C-12.97 27 -15.94 27 -19 27 C-19 24.36 -19 21.72 -19 19 C-11.125 18 -11.125 18 -10 18 Z " fill="#EEEEEE" transform="translate(28,202)"/>
<path d="M0 0 C1.98 0 3.96 0 6 0 C6 2.97 6 5.94 6 9 C8.97 9 11.94 9 15 9 C15 11.97 15 14.94 15 18 C12.03 18 9.06 18 6 18 C6 20.97 6 23.94 6 27 C5.01 27 4.02 27 3 27 C1.80047855 23.13154333 1.70019577 19.20253731 1.5 15.1875 C1.24031762 10.06598644 0.79505215 5.06845743 0 0 Z " fill="#ECECEC" transform="translate(177,37)"/>
<path d="M0 0 C3.3 0 6.6 0 10 0 C10.09765625 6.93359375 10.09765625 6.93359375 10 9 C9 10 9 10 7.15234375 10.09765625 C5.1015625 10.06510417 3.05078125 10.03255208 1 10 C1 12.64 1 15.28 1 18 C-2.3 18 -5.6 18 -9 18 C-9 15.03 -9 12.06 -9 9 C-6.03 9 -3.06 9 0 9 C0 6.03 0 3.06 0 0 Z " fill="#FCFCFC" transform="translate(192,211)"/>
<path d="M0 0 C3.3 0 6.6 0 10 0 C10.09765625 6.93359375 10.09765625 6.93359375 10 9 C9 10 9 10 7.15234375 10.09765625 C5.1015625 10.06510417 3.05078125 10.03255208 1 10 C1 12.64 1 15.28 1 18 C-2.3 18 -5.6 18 -9 18 C-9 15.03 -9 12.06 -9 9 C-6.03 9 -3.06 9 0 9 C0 6.03 0 3.06 0 0 Z " fill="#FCFCFC" transform="translate(137,211)"/>
<path d="M0 0 C3.3 0 6.6 0 10 0 C10.09765625 6.93359375 10.09765625 6.93359375 10 9 C9 10 9 10 7.15234375 10.09765625 C5.1015625 10.06510417 3.05078125 10.03255208 1 10 C1 12.64 1 15.28 1 18 C-2.3 18 -5.6 18 -9 18 C-9 15.03 -9 12.06 -9 9 C-6.03 9 -3.06 9 0 9 C0 6.03 0 3.06 0 0 Z " fill="#FCFCFC" transform="translate(82,211)"/>
<path d="M0 0 C1.69953157 1.00909687 3.35542486 2.09111657 5 3.1875 C4.67 5.4975 4.34 7.8075 4 10.1875 C1.03 10.1875 -1.94 10.1875 -5 10.1875 C-5 13.1575 -5 16.1275 -5 19.1875 C-7.97 19.1875 -10.94 19.1875 -14 19.1875 C-14 15.8875 -14 12.5875 -14 9.1875 C-11.03 9.1875 -8.06 9.1875 -5 9.1875 C-5 6.2175 -5 3.2475 -5 0.1875 C-2 -0.8125 -2 -0.8125 0 0 Z " fill="#FDFDFD" transform="translate(179,118.8125)"/>
<path d="M0 0 C2.97 0 5.94 0 9 0 C9 2.97 9 5.94 9 9 C6.29120665 10.35439668 3.99066732 10.06501451 1 10 C0.855625 11.299375 0.71125 12.59875 0.5625 13.9375 C0.125 17.875 0.125 17.875 -1 19 C-3.67058851 19.14115161 -6.32432238 19.04247107 -9 19 C-9 16.03 -9 13.06 -9 10 C-6.36 9.67 -3.72 9.34 -1 9 C-0.67 6.03 -0.34 3.06 0 0 Z " fill="#EEEEEE" transform="translate(202,64)"/>
<path d="M0 0 C2.97 0 5.94 0 9 0 C9 2.97 9 5.94 9 9 C6.36 9.33 3.72 9.66 1 10 C0.87625 11.299375 0.7525 12.59875 0.625 13.9375 C0.4140625 16.15234375 0.4140625 16.15234375 0 18 C-3.06890187 19.53445094 -5.70094266 18.54984289 -9 18 C-9.09765625 11.84765625 -9.09765625 11.84765625 -9 10 C-8 9 -8 9 -6.15234375 8.90234375 C-4.1015625 8.93489583 -2.05078125 8.96744792 0 9 C0 6.03 0 3.06 0 0 Z " fill="#EEEEEE" transform="translate(147,156)"/>
<path d="M0 0 C2.97 0 5.94 0 9 0 C9 2.97 9 5.94 9 9 C6.36 9.33 3.72 9.66 1 10 C0.87625 11.299375 0.7525 12.59875 0.625 13.9375 C0.4140625 16.15234375 0.4140625 16.15234375 0 18 C-3.06890187 19.53445094 -5.70094266 18.54984289 -9 18 C-9.09765625 11.84765625 -9.09765625 11.84765625 -9 10 C-8 9 -8 9 -6.15234375 8.90234375 C-4.1015625 8.93489583 -2.05078125 8.96744792 0 9 C0 6.03 0 3.06 0 0 Z " fill="#EEEEEE" transform="translate(92,156)"/>
<path d="M0 0 C2.97 0 5.94 0 9 0 C9 2.97 9 5.94 9 9 C6.36 9.33 3.72 9.66 1 10 C0.87625 11.299375 0.7525 12.59875 0.625 13.9375 C0.4140625 16.15234375 0.4140625 16.15234375 0 18 C-3.06890187 19.53445094 -5.70094266 18.54984289 -9 18 C-9.09765625 11.84765625 -9.09765625 11.84765625 -9 10 C-8 9 -8 9 -6.15234375 8.90234375 C-4.1015625 8.93489583 -2.05078125 8.96744792 0 9 C0 6.03 0 3.06 0 0 Z " fill="#EEEEEE" transform="translate(37,9)"/>
<path d="M0 0 C2.97 0 5.94 0 9 0 C9 2.97 9 5.94 9 9 C5.7 9 2.4 9 -1 9 C-0.67 6.03 -0.34 3.06 0 0 Z M-10 9 C-7.03 9 -4.06 9 -1 9 C-1 11.97 -1 14.94 -1 18 C-3.97 18 -6.94 18 -10 18 C-10 15.03 -10 12.06 -10 9 Z " fill="#EEEEEE" transform="translate(83,0)"/>
<path d="M0 0 C2.97 0 5.94 0 9 0 C9 2.97 9 5.94 9 9 C6.03 9 3.06 9 0 9 C0 6.03 0 3.06 0 0 Z M-9 9 C-6.03 9 -3.06 9 0 9 C0 11.97 0 14.94 0 18 C-2.97 18 -5.94 18 -9 18 C-9 15.03 -9 12.06 -9 9 Z " fill="#FEFEFE" transform="translate(128,55)"/>
<path d="M0 0 C2.97 0 5.94 0 9 0 C9 2.97 9 5.94 9 9 C6.03 9 3.06 9 0 9 C0 6.03 0 3.06 0 0 Z M-9 9 C-6.03 9 -3.06 9 0 9 C0 11.97 0 14.94 0 18 C-2.97 18 -5.94 18 -9 18 C-9 15.03 -9 12.06 -9 9 Z " fill="#FEFEFE" transform="translate(18,55)"/>
<path d="M0 0 C2.97 0 5.94 0 9 0 C9 2.97 9 5.94 9 9 C6.36 9.33 3.72 9.66 1 10 C0.67 12.64 0.34 15.28 0 18 C-2.97 18 -5.94 18 -9 18 C-9 15.36 -9 12.72 -9 10 C-6.36 9.67 -3.72 9.34 -1 9 C-0.67 6.03 -0.34 3.06 0 0 Z " fill="#EEEEEE" transform="translate(202,211)"/>
<path d="M0 0 C2.97 0 5.94 0 9 0 C9 2.97 9 5.94 9 9 C6.36 9.33 3.72 9.66 1 10 C0.67 12.64 0.34 15.28 0 18 C-2.97 18 -5.94 18 -9 18 C-9 15.36 -9 12.72 -9 10 C-6.36 9.67 -3.72 9.34 -1 9 C-0.67 6.03 -0.34 3.06 0 0 Z " fill="#EEEEEE" transform="translate(147,211)"/>
<path d="M0 0 C2.97 0 5.94 0 9 0 C9 2.97 9 5.94 9 9 C6.36 9.33 3.72 9.66 1 10 C0.67 12.64 0.34 15.28 0 18 C-2.97 18 -5.94 18 -9 18 C-9 15.36 -9 12.72 -9 10 C-6.36 9.67 -3.72 9.34 -1 9 C-0.67 6.03 -0.34 3.06 0 0 Z " fill="#EEEEEE" transform="translate(92,211)"/>
<path d="M0 0 C2.05078125 0.03255208 4.1015625 0.06510417 6.15234375 0.09765625 C6.15234375 3.06765625 6.15234375 6.03765625 6.15234375 9.09765625 C2.85234375 9.09765625 -0.44765625 9.09765625 -3.84765625 9.09765625 C-2.85356362 0.1508226 -2.85356362 0.1508226 0 0 Z M-3.84765625 9.09765625 C-3.84765625 12.06765625 -3.84765625 15.03765625 -3.84765625 18.09765625 C-6.81765625 18.09765625 -9.78765625 18.09765625 -12.84765625 18.09765625 C-12.89007348 15.7647085 -12.88858562 13.43063058 -12.84765625 11.09765625 C-10.83400539 9.08400539 -6.61671074 9.09765625 -3.84765625 9.09765625 Z " fill="#EEEEEE" transform="translate(30.84765625,109.90234375)"/>
<path d="M0 0 C1.2065625 0.0309375 1.2065625 0.0309375 2.4375 0.0625 C3.65720604 3.72161811 3.07692883 4.50131321 1.5625 7.9375 C0.01927511 11.46641287 -0.78777262 14.1888631 -1.5625 18.0625 C-5.1925 18.0625 -8.8225 18.0625 -12.5625 18.0625 C-12.5625 15.0925 -12.5625 12.1225 -12.5625 9.0625 C-9.5925 9.0625 -6.6225 9.0625 -3.5625 9.0625 C-3.583125 7.763125 -3.60375 6.46375 -3.625 5.125 C-3.64649454 3.77084367 -3.63398199 2.41493917 -3.5625 1.0625 C-2.5625 0.0625 -2.5625 0.0625 0 0 Z " fill="#EEEEEE" transform="translate(76.5625,27.9375)"/>
<path d="M0 0 C2.97 0 5.94 0 9 0 C9 2.97 9 5.94 9 9 C6.36 9.33 3.72 9.66 1 10 C0.87625 11.299375 0.7525 12.59875 0.625 13.9375 C0.4140625 16.15234375 0.4140625 16.15234375 0 18 C-2 19 -2 19 -4.4375 18.375 C-7.54731922 16.70631652 -8.56457749 15.18982781 -10 12 C-9.67 11.34 -9.34 10.68 -9 10 C-6.35139573 9.40644386 -3.70802678 9.25790731 -1 9 C-0.67 6.03 -0.34 3.06 0 0 Z " fill="#ECECEC" transform="translate(211,110)"/>
<path d="M0 0 C2.97 0 5.94 0 9 0 C9.09765625 6.93359375 9.09765625 6.93359375 9 9 C8 10 8 10 6.15234375 10.09765625 C4.1015625 10.06510417 2.05078125 10.03255208 0 10 C0 11.65 0 13.3 0 15 C-3.3 15 -6.6 15 -10 15 C-9.67 13.02 -9.34 11.04 -9 9 C-6.03 9 -3.06 9 0 9 C0 6.03 0 3.06 0 0 Z " fill="#FDFDFD" transform="translate(110,165)"/>
<path d="M0 0 C3.3 0 6.6 0 10 0 C10 2.97 10 5.94 10 9 C13.3 9 16.6 9 20 9 C20 11.97 20 14.94 20 18 C19.01 18.33 18.02 18.66 17 19 C15.99403703 18.0479279 14.99538437 17.08812654 14 16.125 C13.443125 15.59132813 12.88625 15.05765625 12.3125 14.5078125 C11 13 11 13 11 11 C10.41734375 10.73058594 9.8346875 10.46117188 9.234375 10.18359375 C6.98891824 8.99412977 5.19305156 7.69416509 3.25 6.0625 C2.63640625 5.55847656 2.0228125 5.05445312 1.390625 4.53515625 C0 3 0 3 0 0 Z " fill="#E9E9E9" transform="translate(182,101)"/>
<path d="M0 0 C2.97 0 5.94 0 9 0 C9 2.97 9 5.94 9 9 C6.03 9 3.06 9 0 9 C0 6.03 0 3.06 0 0 Z M0 9 C0 10.98 0 12.96 0 15 C-2.97 15 -5.94 15 -9 15 C-9 13.35 -9 11.7 -9 10 C-1.125 9 -1.125 9 0 9 Z " fill="#EEEEEE" transform="translate(64,165)"/>
<path d="M0 0 C0.33 0 0.66 0 1 0 C1 8.25 1 16.5 1 25 C-1.97 25 -4.94 25 -8 25 C-8.49387972 17.71527408 -8.49387972 17.71527408 -6.1875 14.375 C-5.1046875 13.199375 -5.1046875 13.199375 -4 12 C-1.69871262 7.99405531 -0.54604295 4.58676075 0 0 Z " fill="#ECECEC" transform="translate(219,168)"/>
<path d="M0 0 C2.97 0 5.94 0 9 0 C9.09765625 6.93359375 9.09765625 6.93359375 9 9 C8 10 8 10 6.15234375 10.09765625 C4.1015625 10.06510417 2.05078125 10.03255208 0 10 C0 11.65 0 13.3 0 15 C-1.98 15 -3.96 15 -6 15 C-6 13.02 -6 11.04 -6 9 C-4.02 9 -2.04 9 0 9 C0 6.03 0 3.06 0 0 Z " fill="#FDFDFD" transform="translate(55,165)"/>
<path d="M0 0 C2.97 0 5.94 0 9 0 C9 2.97 9 5.94 9 9 C6.03 9 3.06 9 0 9 C0 6.03 0 3.06 0 0 Z M0 9 C0 10.65 0 12.3 0 14 C-2.97 14 -5.94 14 -9 14 C-9 12.68 -9 11.36 -9 10 C-1.125 9 -1.125 9 0 9 Z " fill="#EEEEEE" transform="translate(174,165)"/>
<path d="M0 0 C0.99 0.33 1.98 0.66 3 1 C3.73046875 2.84765625 3.73046875 2.84765625 4.1875 5.0625 C4.34605469 5.79597656 4.50460938 6.52945313 4.66796875 7.28515625 C4.83232422 8.13400391 4.83232422 8.13400391 5 9 C4.01 9.33 3.02 9.66 2 10 C1.34 9.67 0.68 9.34 0 9 C0 6.03 0 3.06 0 0 Z M0 9 C0 12.3 0 15.6 0 19 C-2.97 19 -5.94 19 -9 19 C-9.09765625 12.84765625 -9.09765625 12.84765625 -9 11 C-6.98634914 8.98634914 -2.76905449 9 0 9 Z " fill="#EEEEEE" transform="translate(73,64)"/>
<path d="M0 0 C1.76647063 2.64970595 2.97014997 5.01498099 4.1875 7.9375 C4.55230469 8.79214844 4.91710937 9.64679688 5.29296875 10.52734375 C6.28039532 13.98060905 5.56436475 15.87127049 4 19 C3.34 19 2.68 19 2 19 C2 16.03 2 13.06 2 10 C-0.97 10 -3.94 10 -7 10 C-7 7.03 -7 4.06 -7 1 C-3.535 0.505 -3.535 0.505 0 0 Z " fill="#EBEBEB" transform="translate(200,146)"/>
<path d="M0 0 C-0.33 4.62 -0.66 9.24 -1 14 C-3.97 14 -6.94 14 -10 14 C-11 10.9375 -11 10.9375 -11 7 C-8.0376099 3.27544157 -4.89315316 0 0 0 Z " fill="#EEEEEE" transform="translate(83,114)"/>
<path d="M0 0 C2.05078125 0.03255208 4.1015625 0.06510417 6.15234375 0.09765625 C6.15234375 3.39765625 6.15234375 6.69765625 6.15234375 10.09765625 C2.85234375 10.09765625 -0.44765625 10.09765625 -3.84765625 10.09765625 C-2.8670528 0.15153556 -2.8670528 0.15153556 0 0 Z " fill="#FDFDFD" transform="translate(213.84765625,118.90234375)"/>
<path d="M0 0 C2.97 0 5.94 0 9 0 C9 1.65 9 3.3 9 5 C17.25 5 25.5 5 34 5 C34 5.33 34 5.66 34 6 C33.1121582 6.01458252 32.22431641 6.02916504 31.30957031 6.04418945 C28.00672038 6.10534534 24.70469085 6.17951378 21.40234375 6.26245117 C19.97472086 6.29564794 18.54696837 6.32369631 17.11914062 6.34643555 C15.06324185 6.38008013 13.00852488 6.43239562 10.953125 6.48828125 C9.09929199 6.52755737 9.09929199 6.52755737 7.20800781 6.56762695 C3.60573591 6.78760822 3.60573591 6.78760822 0 10 C0 6.7 0 3.4 0 0 Z " fill="#E1E1E1" transform="translate(0,175)"/>
<path d="M0 0 C2.97 0 5.94 0 9 0 C9 2.31 9 4.62 9 7 C9.66 7.33 10.32 7.66 11 8 C6.71702469 9.05619003 2.57014354 9.11702092 -1.8125 9.0625 C-2.50537109 9.05798828 -3.19824219 9.05347656 -3.91210938 9.04882812 C-5.60811068 9.03713156 -7.30406703 9.01919924 -9 9 C-9 8.67 -9 8.34 -9 8 C-6.03 8 -3.06 8 0 8 C0 5.36 0 2.72 0 0 Z " fill="#EAEAEA" transform="translate(128,83)"/>
<path d="M0 0 C3.3 0 6.6 0 10 0 C10.09765625 6.15234375 10.09765625 6.15234375 10 8 C9 9 9 9 6.93359375 9.09765625 C3.46679688 9.04882812 3.46679688 9.04882812 0 9 C0 6.03 0 3.06 0 0 Z " fill="#FDFDFD" transform="translate(183,0)"/>
<path d="M0 0 C3.3 0 6.6 0 10 0 C10.09765625 6.15234375 10.09765625 6.15234375 10 8 C9 9 9 9 6.93359375 9.09765625 C3.46679688 9.04882812 3.46679688 9.04882812 0 9 C0 6.03 0 3.06 0 0 Z " fill="#FDFDFD" transform="translate(73,0)"/>
<path d="M0 0 C3.3 0 6.6 0 10 0 C10.09765625 6.15234375 10.09765625 6.15234375 10 8 C9 9 9 9 6.93359375 9.09765625 C3.46679688 9.04882812 3.46679688 9.04882812 0 9 C0 6.03 0 3.06 0 0 Z " fill="#FDFDFD" transform="translate(18,0)"/>
<path d="M0 0 C-3.93609746 2.59950822 -8.06842928 2.40577232 -12.625 2.5625 C-17.97600221 2.54282656 -17.97600221 2.54282656 -23 4 C-23 3.34 -23 2.68 -23 2 C-23.99 1.67 -24.98 1.34 -26 1 C-26.33 0.34 -26.66 -0.32 -27 -1 C-18.56322243 -3.81225919 -8.46053239 -2.1833632 0 0 Z " fill="#E7E7E7" transform="translate(142,16)"/>
<path d="M0 0 C2.05078125 0.03255208 4.1015625 0.06510417 6.15234375 0.09765625 C6.17923591 1.57672517 6.19868996 3.05593108 6.21484375 4.53515625 C6.22644531 5.35886719 6.23804688 6.18257812 6.25 7.03125 C6.15234375 9.09765625 6.15234375 9.09765625 5.15234375 10.09765625 C1.65234375 10.22265625 1.65234375 10.22265625 -1.84765625 10.09765625 C-2.84765625 9.09765625 -2.84765625 9.09765625 -2.98046875 7.28515625 C-2.97789062 6.56328125 -2.9753125 5.84140625 -2.97265625 5.09765625 C-2.97523438 4.37578125 -2.9778125 3.65390625 -2.98046875 2.91015625 C-2.79798679 0.41981421 -2.49538581 0.13189143 0 0 Z " fill="#FDFDFD" transform="translate(149.84765625,164.90234375)"/>
<path d="M0 0 C3.3 0.33 6.6 0.66 10 1 C10 3.97 10 6.94 10 10 C7.03 10 4.06 10 1 10 C0.67 6.7 0.34 3.4 0 0 Z " fill="#FDFDFD" transform="translate(91,36)"/>
<path d="M0 0 C2.64 0.33 5.28 0.66 8 1 C8 8.26 8 15.52 8 23 C7.67 23 7.34 23 7 23 C6.74605469 22.05898437 6.49210938 21.11796875 6.23046875 20.1484375 C5.88628906 18.90320313 5.54210937 17.65796875 5.1875 16.375 C4.85105469 15.14523438 4.51460937 13.91546875 4.16796875 12.6484375 C3.09956163 8.9901386 3.09956163 8.9901386 1.36328125 5.7265625 C0 3 0 3 0 0 Z " fill="#FAFAFA" transform="translate(212,137)"/>
<path d="M0 0 C2.97 0 5.94 0 9 0 C9 2.97 9 5.94 9 9 C6.03 9 3.06 9 0 9 C0 6.03 0 3.06 0 0 Z " fill="#FDFDFD" transform="translate(18,220)"/>
<path d="M0 0 C2.97 0 5.94 0 9 0 C9 2.97 9 5.94 9 9 C6.03 9 3.06 9 0 9 C0 6.03 0 3.06 0 0 Z " fill="#EEEEEE" transform="translate(9,165)"/>
<path d="M0 0 C2.97 0 5.94 0 9 0 C9 2.97 9 5.94 9 9 C4.545 9.495 4.545 9.495 0 10 C0 6.7 0 3.4 0 0 Z " fill="#FEFEFE" transform="translate(46,138)"/>
<path d="M0 0 C2.97 0.33 5.94 0.66 9 1 C9.87890625 7.15234375 9.87890625 7.15234375 10 9 C9 10 9 10 7.1875 10.1328125 C6.465625 10.13023438 5.74375 10.12765625 5 10.125 C4.278125 10.12757812 3.55625 10.13015625 2.8125 10.1328125 C1 10 1 10 0 9 C-0.14193337 5.99668982 -0.04236378 3.00782866 0 0 Z " fill="#EEEEEE" transform="translate(128,27)"/>
<path d="M0 0 C2.97 0.33 5.94 0.66 9 1 C9.87890625 7.15234375 9.87890625 7.15234375 10 9 C9 10 9 10 7.1875 10.1328125 C6.465625 10.13023438 5.74375 10.12765625 5 10.125 C4.278125 10.12757812 3.55625 10.13015625 2.8125 10.1328125 C1 10 1 10 0 9 C-0.14193337 5.99668982 -0.04236378 3.00782866 0 0 Z " fill="#EEEEEE" transform="translate(18,27)"/>
<path d="M0 0 C3.46679688 0.04882812 3.46679688 0.04882812 6.93359375 0.09765625 C6.60359375 3.06765625 6.27359375 6.03765625 5.93359375 9.09765625 C2.96359375 9.09765625 -0.00640625 9.09765625 -3.06640625 9.09765625 C-3.1640625 2.9453125 -3.1640625 2.9453125 -3.06640625 1.09765625 C-2.06640625 0.09765625 -2.06640625 0.09765625 0 0 Z " fill="#FEFEFE" transform="translate(205.06640625,219.90234375)"/>
<path d="M0 0 C3.46679688 0.04882812 3.46679688 0.04882812 6.93359375 0.09765625 C6.60359375 3.06765625 6.27359375 6.03765625 5.93359375 9.09765625 C2.96359375 9.09765625 -0.00640625 9.09765625 -3.06640625 9.09765625 C-3.1640625 2.9453125 -3.1640625 2.9453125 -3.06640625 1.09765625 C-2.06640625 0.09765625 -2.06640625 0.09765625 0 0 Z " fill="#FEFEFE" transform="translate(150.06640625,219.90234375)"/>
<path d="M0 0 C3.46679688 0.04882812 3.46679688 0.04882812 6.93359375 0.09765625 C6.60359375 3.06765625 6.27359375 6.03765625 5.93359375 9.09765625 C2.96359375 9.09765625 -0.00640625 9.09765625 -3.06640625 9.09765625 C-3.1640625 2.9453125 -3.1640625 2.9453125 -3.06640625 1.09765625 C-2.06640625 0.09765625 -2.06640625 0.09765625 0 0 Z " fill="#FEFEFE" transform="translate(95.06640625,219.90234375)"/>
<path d="M0 0 C2.97 0 5.94 0 9 0 C9 2.97 9 5.94 9 9 C6.03 9 3.06 9 0 9 C0 6.03 0 3.06 0 0 Z " fill="#EEEEEE" transform="translate(110,211)"/>
<path d="M0 0 C2.97 0 5.94 0 9 0 C9 2.97 9 5.94 9 9 C6.03 9 3.06 9 0 9 C0 6.03 0 3.06 0 0 Z " fill="#EEEEEE" transform="translate(0,211)"/>
<path d="M0 0 C2.97 0 5.94 0 9 0 C9 2.97 9 5.94 9 9 C6.03 9 3.06 9 0 9 C0 6.03 0 3.06 0 0 Z " fill="#EDEDED" transform="translate(211,202)"/>
<path d="M0 0 C2.97 0 5.94 0 9 0 C9 2.97 9 5.94 9 9 C6.03 9 3.06 9 0 9 C0 6.03 0 3.06 0 0 Z " fill="#FFFFFF" transform="translate(202,202)"/>
<path d="M0 0 C2.97 0 5.94 0 9 0 C9 2.97 9 5.94 9 9 C6.03 9 3.06 9 0 9 C0 6.03 0 3.06 0 0 Z " fill="#EEEEEE" transform="translate(174,202)"/>
<path d="M0 0 C2.97 0 5.94 0 9 0 C9 2.97 9 5.94 9 9 C6.03 9 3.06 9 0 9 C0 6.03 0 3.06 0 0 Z " fill="#EDEDED" transform="translate(156,202)"/>
<path d="M0 0 C2.97 0 5.94 0 9 0 C9 2.97 9 5.94 9 9 C6.03 9 3.06 9 0 9 C0 6.03 0 3.06 0 0 Z " fill="#FFFFFF" transform="translate(147,202)"/>
<path d="M0 0 C2.97 0 5.94 0 9 0 C9 2.97 9 5.94 9 9 C6.03 9 3.06 9 0 9 C0 6.03 0 3.06 0 0 Z " fill="#EEEEEE" transform="translate(119,202)"/>
<path d="M0 0 C2.97 0 5.94 0 9 0 C9 2.97 9 5.94 9 9 C6.03 9 3.06 9 0 9 C0 6.03 0 3.06 0 0 Z " fill="#EDEDED" transform="translate(101,202)"/>
<path d="M0 0 C2.97 0 5.94 0 9 0 C9 2.97 9 5.94 9 9 C6.03 9 3.06 9 0 9 C0 6.03 0 3.06 0 0 Z " fill="#FFFFFF" transform="translate(92,202)"/>
<path d="M0 0 C2.97 0 5.94 0 9 0 C9 2.97 9 5.94 9 9 C6.03 9 3.06 9 0 9 C0 6.03 0 3.06 0 0 Z " fill="#EEEEEE" transform="translate(64,202)"/>
<path d="M0 0 C2.97 0 5.94 0 9 0 C9 2.97 9 5.94 9 9 C6.03 9 3.06 9 0 9 C0 6.03 0 3.06 0 0 Z " fill="#FFFFFF" transform="translate(55,202)"/>
<path d="M0 0 C2.97 0 5.94 0 9 0 C9 2.97 9 5.94 9 9 C6.03 9 3.06 9 0 9 C0 6.03 0 3.06 0 0 Z " fill="#EEEEEE" transform="translate(9,202)"/>
<path d="M0 0 C2.97 0 5.94 0 9 0 C9 2.97 9 5.94 9 9 C6.03 9 3.06 9 0 9 C0 6.03 0 3.06 0 0 Z " fill="#FFFFFF" transform="translate(0,202)"/>
<path d="M0 0 C2.97 0 5.94 0 9 0 C9 2.97 9 5.94 9 9 C6.03 9 3.06 9 0 9 C0 6.03 0 3.06 0 0 Z " fill="#FFFFFF" transform="translate(211,193)"/>
<path d="M0 0 C2.97 0 5.94 0 9 0 C9 2.97 9 5.94 9 9 C6.03 9 3.06 9 0 9 C0 6.03 0 3.06 0 0 Z " fill="#EEEEEE" transform="translate(156,165)"/>
<path d="M0 0 C2.97 0 5.94 0 9 0 C9 2.97 9 5.94 9 9 C6.03 9 3.06 9 0 9 C0 6.03 0 3.06 0 0 Z " fill="#EEEEEE" transform="translate(101,165)"/>
<path d="M0 0 C2.97 0 5.94 0 9 0 C9 2.97 9 5.94 9 9 C6.03 9 3.06 9 0 9 C0 6.03 0 3.06 0 0 Z " fill="#EEEEEE" transform="translate(183,156)"/>
<path d="M0 0 C2.97 0 5.94 0 9 0 C9 2.97 9 5.94 9 9 C6.03 9 3.06 9 0 9 C0 6.03 0 3.06 0 0 Z " fill="#FEFEFE" transform="translate(174,156)"/>
<path d="M0 0 C2.97 0 5.94 0 9 0 C9 2.97 9 5.94 9 9 C6.03 9 3.06 9 0 9 C0 6.03 0 3.06 0 0 Z " fill="#EDEDED" transform="translate(165,156)"/>
<path d="M0 0 C2.97 0 5.94 0 9 0 C9 2.97 9 5.94 9 9 C6.03 9 3.06 9 0 9 C0 6.03 0 3.06 0 0 Z " fill="#FFFFFF" transform="translate(156,156)"/>
<path d="M0 0 C2.97 0 5.94 0 9 0 C9 2.97 9 5.94 9 9 C6.03 9 3.06 9 0 9 C0 6.03 0 3.06 0 0 Z " fill="#EEEEEE" transform="translate(128,156)"/>
<path d="M0 0 C2.97 0 5.94 0 9 0 C9 2.97 9 5.94 9 9 C6.03 9 3.06 9 0 9 C0 6.03 0 3.06 0 0 Z " fill="#FEFEFE" transform="translate(119,156)"/>
<path d="M0 0 C2.97 0 5.94 0 9 0 C9 2.97 9 5.94 9 9 C6.03 9 3.06 9 0 9 C0 6.03 0 3.06 0 0 Z " fill="#EDEDED" transform="translate(110,156)"/>
<path d="M0 0 C2.97 0 5.94 0 9 0 C9 2.97 9 5.94 9 9 C6.03 9 3.06 9 0 9 C0 6.03 0 3.06 0 0 Z " fill="#FFFFFF" transform="translate(101,156)"/>
<path d="M0 0 C2.97 0 5.94 0 9 0 C9 2.97 9 5.94 9 9 C6.03 9 3.06 9 0 9 C0 6.03 0 3.06 0 0 Z " fill="#EEEEEE" transform="translate(73,156)"/>
<path d="M0 0 C2.97 0 5.94 0 9 0 C9 2.97 9 5.94 9 9 C6.03 9 3.06 9 0 9 C0 6.03 0 3.06 0 0 Z " fill="#FEFEFE" transform="translate(64,156)"/>
<path d="M0 0 C2.97 0 5.94 0 9 0 C9 2.97 9 5.94 9 9 C6.03 9 3.06 9 0 9 C0 6.03 0 3.06 0 0 Z " fill="#EDEDED" transform="translate(55,156)"/>
<path d="M0 0 C2.97 0 5.94 0 9 0 C9 2.97 9 5.94 9 9 C6.03 9 3.06 9 0 9 C0 6.03 0 3.06 0 0 Z " fill="#FEFEFE" transform="translate(9,156)"/>
<path d="M0 0 C2.97 0 5.94 0 9 0 C9 2.97 9 5.94 9 9 C6.03 9 3.06 9 0 9 C0 6.03 0 3.06 0 0 Z " fill="#EDEDED" transform="translate(0,156)"/>
<path d="M0 0 C2.97 0 5.94 0 9 0 C9 2.97 9 5.94 9 9 C6.03 9 3.06 9 0 9 C0 6.03 0 3.06 0 0 Z " fill="#EEEEEE" transform="translate(174,147)"/>
<path d="M0 0 C2.97 0 5.94 0 9 0 C9 2.97 9 5.94 9 9 C6.03 9 3.06 9 0 9 C0 6.03 0 3.06 0 0 Z " fill="#FFFFFF" transform="translate(165,147)"/>
<path d="M0 0 C2.97 0 5.94 0 9 0 C9 2.97 9 5.94 9 9 C6.03 9 3.06 9 0 9 C0 6.03 0 3.06 0 0 Z " fill="#EDEDED" transform="translate(156,147)"/>
<path d="M0 0 C2.97 0 5.94 0 9 0 C9 2.97 9 5.94 9 9 C6.03 9 3.06 9 0 9 C0 6.03 0 3.06 0 0 Z " fill="#FFFFFF" transform="translate(147,147)"/>
<path d="M0 0 C2.97 0 5.94 0 9 0 C9 2.97 9 5.94 9 9 C6.03 9 3.06 9 0 9 C0 6.03 0 3.06 0 0 Z " fill="#EEEEEE" transform="translate(138,147)"/>
<path d="M0 0 C2.97 0 5.94 0 9 0 C9 2.97 9 5.94 9 9 C6.03 9 3.06 9 0 9 C0 6.03 0 3.06 0 0 Z " fill="#EEEEEE" transform="translate(119,147)"/>
<path d="M0 0 C2.97 0 5.94 0 9 0 C9 2.97 9 5.94 9 9 C6.03 9 3.06 9 0 9 C0 6.03 0 3.06 0 0 Z " fill="#FFFFFF" transform="translate(110,147)"/>
<path d="M0 0 C2.97 0 5.94 0 9 0 C9 2.97 9 5.94 9 9 C6.03 9 3.06 9 0 9 C0 6.03 0 3.06 0 0 Z " fill="#EDEDED" transform="translate(101,147)"/>
<path d="M0 0 C2.97 0 5.94 0 9 0 C9 2.97 9 5.94 9 9 C6.03 9 3.06 9 0 9 C0 6.03 0 3.06 0 0 Z " fill="#FFFFFF" transform="translate(92,147)"/>
<path d="M0 0 C2.97 0 5.94 0 9 0 C9 2.97 9 5.94 9 9 C6.03 9 3.06 9 0 9 C0 6.03 0 3.06 0 0 Z " fill="#EEEEEE" transform="translate(83,147)"/>
<path d="M0 0 C2.97 0 5.94 0 9 0 C9 2.97 9 5.94 9 9 C6.03 9 3.06 9 0 9 C0 6.03 0 3.06 0 0 Z " fill="#FFFFFF" transform="translate(55,147)"/>
<path d="M0 0 C2.97 0 5.94 0 9 0 C9 2.97 9 5.94 9 9 C6.03 9 3.06 9 0 9 C0 6.03 0 3.06 0 0 Z " fill="#EEEEEE" transform="translate(9,147)"/>
<path d="M0 0 C2.97 0 5.94 0 9 0 C9 2.97 9 5.94 9 9 C6.03 9 3.06 9 0 9 C0 6.03 0 3.06 0 0 Z " fill="#FFFFFF" transform="translate(174,138)"/>
<path d="M0 0 C2.97 0 5.94 0 9 0 C9 2.97 9 5.94 9 9 C6.03 9 3.06 9 0 9 C0 6.03 0 3.06 0 0 Z " fill="#EDEDED" transform="translate(165,138)"/>
<path d="M0 0 C2.97 0 5.94 0 9 0 C9 2.97 9 5.94 9 9 C6.03 9 3.06 9 0 9 C0 6.03 0 3.06 0 0 Z " fill="#FFFFFF" transform="translate(156,138)"/>
<path d="M0 0 C2.97 0 5.94 0 9 0 C9 2.97 9 5.94 9 9 C6.03 9 3.06 9 0 9 C0 6.03 0 3.06 0 0 Z " fill="#EEEEEE" transform="translate(147,138)"/>
<path d="M0 0 C2.97 0 5.94 0 9 0 C9 2.97 9 5.94 9 9 C6.03 9 3.06 9 0 9 C0 6.03 0 3.06 0 0 Z " fill="#EEEEEE" transform="translate(128,138)"/>
<path d="M0 0 C2.97 0 5.94 0 9 0 C9 2.97 9 5.94 9 9 C6.03 9 3.06 9 0 9 C0 6.03 0 3.06 0 0 Z " fill="#FFFFFF" transform="translate(119,138)"/>
<path d="M0 0 C2.97 0 5.94 0 9 0 C9 2.97 9 5.94 9 9 C6.03 9 3.06 9 0 9 C0 6.03 0 3.06 0 0 Z " fill="#EDEDED" transform="translate(110,138)"/>
<path d="M0 0 C2.97 0 5.94 0 9 0 C9 2.97 9 5.94 9 9 C6.03 9 3.06 9 0 9 C0 6.03 0 3.06 0 0 Z " fill="#FFFFFF" transform="translate(101,138)"/>
<path d="M0 0 C2.97 0 5.94 0 9 0 C9 2.97 9 5.94 9 9 C6.03 9 3.06 9 0 9 C0 6.03 0 3.06 0 0 Z " fill="#EEEEEE" transform="translate(92,138)"/>
<path d="M0 0 C2.97 0 5.94 0 9 0 C9 2.97 9 5.94 9 9 C6.03 9 3.06 9 0 9 C0 6.03 0 3.06 0 0 Z " fill="#FFFFFF" transform="translate(64,138)"/>
<path d="M0 0 C2.97 0 5.94 0 9 0 C9 2.97 9 5.94 9 9 C6.03 9 3.06 9 0 9 C0 6.03 0 3.06 0 0 Z " fill="#FFFFFF" transform="translate(9,138)"/>
<path d="M0 0 C2.97 0 5.94 0 9 0 C9 2.97 9 5.94 9 9 C6.03 9 3.06 9 0 9 C0 6.03 0 3.06 0 0 Z " fill="#EDEDED" transform="translate(0,138)"/>
<path d="M0 0 C2.97 0 5.94 0 9 0 C9 2.97 9 5.94 9 9 C6.03 9 3.06 9 0 9 C0 6.03 0 3.06 0 0 Z " fill="#EEEEEE" transform="translate(174,129)"/>
<path d="M0 0 C2.97 0 5.94 0 9 0 C9 2.97 9 5.94 9 9 C6.03 9 3.06 9 0 9 C0 6.03 0 3.06 0 0 Z " fill="#EEEEEE" transform="translate(156,129)"/>
<path d="M0 0 C2.97 0 5.94 0 9 0 C9 2.97 9 5.94 9 9 C6.03 9 3.06 9 0 9 C0 6.03 0 3.06 0 0 Z " fill="#EEEEEE" transform="translate(119,129)"/>
<path d="M0 0 C2.97 0 5.94 0 9 0 C9 2.97 9 5.94 9 9 C6.03 9 3.06 9 0 9 C0 6.03 0 3.06 0 0 Z " fill="#FEFEFE" transform="translate(110,129)"/>
<path d="M0 0 C2.97 0 5.94 0 9 0 C9 2.97 9 5.94 9 9 C6.03 9 3.06 9 0 9 C0 6.03 0 3.06 0 0 Z " fill="#EEEEEE" transform="translate(101,129)"/>
<path d="M0 0 C2.97 0 5.94 0 9 0 C9 2.97 9 5.94 9 9 C6.03 9 3.06 9 0 9 C0 6.03 0 3.06 0 0 Z " fill="#FEFEFE" transform="translate(147,110)"/>
<path d="M0 0 C2.97 0 5.94 0 9 0 C9 2.97 9 5.94 9 9 C6.03 9 3.06 9 0 9 C0 6.03 0 3.06 0 0 Z " fill="#EEEEEE" transform="translate(119,110)"/>
<path d="M0 0 C2.97 0 5.94 0 9 0 C9 2.97 9 5.94 9 9 C6.03 9 3.06 9 0 9 C0 6.03 0 3.06 0 0 Z " fill="#FEFEFE" transform="translate(92,110)"/>
<path d="M0 0 C2.97 0 5.94 0 9 0 C9 2.97 9 5.94 9 9 C6.03 9 3.06 9 0 9 C0 6.03 0 3.06 0 0 Z " fill="#EEEEEE" transform="translate(202,101)"/>
<path d="M0 0 C2.97 0 5.94 0 9 0 C9 2.97 9 5.94 9 9 C6.03 9 3.06 9 0 9 C0 6.03 0 3.06 0 0 Z " fill="#FFFFFF" transform="translate(46,101)"/>
<path d="M0 0 C2.97 0 5.94 0 9 0 C9 2.97 9 5.94 9 9 C6.03 9 3.06 9 0 9 C0 6.03 0 3.06 0 0 Z " fill="#EEEEEE" transform="translate(37,101)"/>
<path d="M0 0 C2.97 0 5.94 0 9 0 C9 2.97 9 5.94 9 9 C6.03 9 3.06 9 0 9 C0 6.03 0 3.06 0 0 Z " fill="#FFFFFF" transform="translate(9,101)"/>
<path d="M0 0 C2.97 0 5.94 0 9 0 C9 2.97 9 5.94 9 9 C6.03 9 3.06 9 0 9 C0 6.03 0 3.06 0 0 Z " fill="#EDEDED" transform="translate(0,101)"/>
<path d="M0 0 C2.97 0 5.94 0 9 0 C9 2.97 9 5.94 9 9 C6.03 9 3.06 9 0 9 C0 6.03 0 3.06 0 0 Z " fill="#EDEDED" transform="translate(211,92)"/>
<path d="M0 0 C2.97 0 5.94 0 9 0 C9 2.97 9 5.94 9 9 C6.03 9 3.06 9 0 9 C0 6.03 0 3.06 0 0 Z " fill="#EEEEEE" transform="translate(193,92)"/>
<path d="M0 0 C2.97 0 5.94 0 9 0 C9 2.97 9 5.94 9 9 C6.03 9 3.06 9 0 9 C0 6.03 0 3.06 0 0 Z " fill="#EEEEEE" transform="translate(64,92)"/>
<path d="M0 0 C2.97 0 5.94 0 9 0 C9 2.97 9 5.94 9 9 C6.03 9 3.06 9 0 9 C0 6.03 0 3.06 0 0 Z " fill="#FFFFFF" transform="translate(55,92)"/>
<path d="M0 0 C2.97 0 5.94 0 9 0 C9 2.97 9 5.94 9 9 C6.03 9 3.06 9 0 9 C0 6.03 0 3.06 0 0 Z " fill="#EDEDED" transform="translate(46,92)"/>
<path d="M0 0 C2.97 0 5.94 0 9 0 C9 2.97 9 5.94 9 9 C6.03 9 3.06 9 0 9 C0 6.03 0 3.06 0 0 Z " fill="#FFFFFF" transform="translate(37,92)"/>
<path d="M0 0 C2.97 0 5.94 0 9 0 C9 2.97 9 5.94 9 9 C6.03 9 3.06 9 0 9 C0 6.03 0 3.06 0 0 Z " fill="#EEEEEE" transform="translate(28,92)"/>
<path d="M0 0 C2.97 0 5.94 0 9 0 C9 2.97 9 5.94 9 9 C6.03 9 3.06 9 0 9 C0 6.03 0 3.06 0 0 Z " fill="#EEEEEE" transform="translate(9,92)"/>
<path d="M0 0 C2.97 0 5.94 0 9 0 C9 2.97 9 5.94 9 9 C6.03 9 3.06 9 0 9 C0 6.03 0 3.06 0 0 Z " fill="#FFFFFF" transform="translate(0,92)"/>
<path d="M0 0 C2.97 0 5.94 0 9 0 C9 2.97 9 5.94 9 9 C6.03 9 3.06 9 0 9 C0 6.03 0 3.06 0 0 Z " fill="#FFFFFF" transform="translate(211,83)"/>
<path d="M0 0 C2.97 0 5.94 0 9 0 C9 2.97 9 5.94 9 9 C6.03 9 3.06 9 0 9 C0 6.03 0 3.06 0 0 Z " fill="#EEEEEE" transform="translate(202,83)"/>
<path d="M0 0 C2.97 0 5.94 0 9 0 C9 2.97 9 5.94 9 9 C6.03 9 3.06 9 0 9 C0 6.03 0 3.06 0 0 Z " fill="#EEEEEE" transform="translate(183,83)"/>
<path d="M0 0 C2.97 0 5.94 0 9 0 C9 2.97 9 5.94 9 9 C6.03 9 3.06 9 0 9 C0 6.03 0 3.06 0 0 Z " fill="#FEFEFE" transform="translate(174,83)"/>
<path d="M0 0 C2.97 0 5.94 0 9 0 C9 2.97 9 5.94 9 9 C6.03 9 3.06 9 0 9 C0 6.03 0 3.06 0 0 Z " fill="#EEEEEE" transform="translate(73,83)"/>
<path d="M0 0 C2.97 0 5.94 0 9 0 C9 2.97 9 5.94 9 9 C6.03 9 3.06 9 0 9 C0 6.03 0 3.06 0 0 Z " fill="#FEFEFE" transform="translate(64,83)"/>
<path d="M0 0 C2.97 0 5.94 0 9 0 C9 2.97 9 5.94 9 9 C6.03 9 3.06 9 0 9 C0 6.03 0 3.06 0 0 Z " fill="#EEEEEE" transform="translate(55,83)"/>
<path d="M0 0 C2.97 0 5.94 0 9 0 C9 2.97 9 5.94 9 9 C6.03 9 3.06 9 0 9 C0 6.03 0 3.06 0 0 Z " fill="#FFFFFF" transform="translate(46,83)"/>
<path d="M0 0 C2.97 0 5.94 0 9 0 C9 2.97 9 5.94 9 9 C6.03 9 3.06 9 0 9 C0 6.03 0 3.06 0 0 Z " fill="#EEEEEE" transform="translate(37,83)"/>
<path d="M0 0 C2.97 0 5.94 0 9 0 C9 2.97 9 5.94 9 9 C6.03 9 3.06 9 0 9 C0 6.03 0 3.06 0 0 Z " fill="#FEFEFE" transform="translate(9,83)"/>
<path d="M0 0 C2.97 0 5.94 0 9 0 C9 2.97 9 5.94 9 9 C6.03 9 3.06 9 0 9 C0 6.03 0 3.06 0 0 Z " fill="#EEEEEE" transform="translate(211,74)"/>
<path d="M0 0 C2.97 0 5.94 0 9 0 C9 2.97 9 5.94 9 9 C6.03 9 3.06 9 0 9 C0 6.03 0 3.06 0 0 Z " fill="#FEFEFE" transform="translate(110,74)"/>
<path d="M0 0 C2.97 0 5.94 0 9 0 C9 2.97 9 5.94 9 9 C6.03 9 3.06 9 0 9 C0 6.03 0 3.06 0 0 Z " fill="#FEFEFE" transform="translate(55,74)"/>
<path d="M0 0 C2.97 0 5.94 0 9 0 C9 2.97 9 5.94 9 9 C6.03 9 3.06 9 0 9 C0 6.03 0 3.06 0 0 Z " fill="#EEEEEE" transform="translate(46,74)"/>
<path d="M0 0 C2.97 0 5.94 0 9 0 C9 2.97 9 5.94 9 9 C6.03 9 3.06 9 0 9 C0 6.03 0 3.06 0 0 Z " fill="#FEFEFE" transform="translate(0,74)"/>
<path d="M0 0 C2.97 0 5.94 0 9 0 C9 2.97 9 5.94 9 9 C6.03 9 3.06 9 0 9 C0 6.03 0 3.06 0 0 Z " fill="#EEEEEE" transform="translate(55,64)"/>
<path d="M0 0 C2.97 0 5.94 0 9 0 C9 2.97 9 5.94 9 9 C6.03 9 3.06 9 0 9 C0 6.03 0 3.06 0 0 Z " fill="#EDEDED" transform="translate(211,55)"/>
<path d="M0 0 C2.97 0 5.94 0 9 0 C9 2.97 9 5.94 9 9 C6.03 9 3.06 9 0 9 C0 6.03 0 3.06 0 0 Z " fill="#FEFEFE" transform="translate(202,55)"/>
<path d="M0 0 C2.97 0 5.94 0 9 0 C9 2.97 9 5.94 9 9 C6.03 9 3.06 9 0 9 C0 6.03 0 3.06 0 0 Z " fill="#FEFEFE" transform="translate(147,55)"/>
<path d="M0 0 C2.97 0 5.94 0 9 0 C9 2.97 9 5.94 9 9 C6.03 9 3.06 9 0 9 C0 6.03 0 3.06 0 0 Z " fill="#EEEEEE" transform="translate(119,55)"/>
<path d="M0 0 C2.97 0 5.94 0 9 0 C9 2.97 9 5.94 9 9 C6.03 9 3.06 9 0 9 C0 6.03 0 3.06 0 0 Z " fill="#FFFFFF" transform="translate(110,55)"/>
<path d="M0 0 C2.97 0 5.94 0 9 0 C9 2.97 9 5.94 9 9 C6.03 9 3.06 9 0 9 C0 6.03 0 3.06 0 0 Z " fill="#FEFEFE" transform="translate(92,55)"/>
<path d="M0 0 C2.97 0 5.94 0 9 0 C9 2.97 9 5.94 9 9 C6.03 9 3.06 9 0 9 C0 6.03 0 3.06 0 0 Z " fill="#EEEEEE" transform="translate(64,55)"/>
<path d="M0 0 C2.97 0 5.94 0 9 0 C9 2.97 9 5.94 9 9 C6.03 9 3.06 9 0 9 C0 6.03 0 3.06 0 0 Z " fill="#FFFFFF" transform="translate(55,55)"/>
<path d="M0 0 C2.97 0 5.94 0 9 0 C9 2.97 9 5.94 9 9 C6.03 9 3.06 9 0 9 C0 6.03 0 3.06 0 0 Z " fill="#EDEDED" transform="translate(46,55)"/>
<path d="M0 0 C2.97 0 5.94 0 9 0 C9 2.97 9 5.94 9 9 C6.03 9 3.06 9 0 9 C0 6.03 0 3.06 0 0 Z " fill="#FEFEFE" transform="translate(37,55)"/>
<path d="M0 0 C2.97 0 5.94 0 9 0 C9 2.97 9 5.94 9 9 C6.03 9 3.06 9 0 9 C0 6.03 0 3.06 0 0 Z " fill="#EEEEEE" transform="translate(9,55)"/>
<path d="M0 0 C2.97 0 5.94 0 9 0 C9 2.97 9 5.94 9 9 C6.03 9 3.06 9 0 9 C0 6.03 0 3.06 0 0 Z " fill="#FFFFFF" transform="translate(0,55)"/>
<path d="M0 0 C2.97 0 5.94 0 9 0 C9 2.97 9 5.94 9 9 C6.03 9 3.06 9 0 9 C0 6.03 0 3.06 0 0 Z " fill="#FFFFFF" transform="translate(211,46)"/>
<path d="M0 0 C2.97 0 5.94 0 9 0 C9 2.97 9 5.94 9 9 C6.03 9 3.06 9 0 9 C0 6.03 0 3.06 0 0 Z " fill="#EEEEEE" transform="translate(202,46)"/>
<path d="M0 0 C2.97 0 5.94 0 9 0 C9 2.97 9 5.94 9 9 C6.03 9 3.06 9 0 9 C0 6.03 0 3.06 0 0 Z " fill="#FEFEFE" transform="translate(193,46)"/>
<path d="M0 0 C2.97 0 5.94 0 9 0 C9 2.97 9 5.94 9 9 C6.03 9 3.06 9 0 9 C0 6.03 0 3.06 0 0 Z " fill="#FEFEFE" transform="translate(138,46)"/>
<path d="M0 0 C2.97 0 5.94 0 9 0 C9 2.97 9 5.94 9 9 C6.03 9 3.06 9 0 9 C0 6.03 0 3.06 0 0 Z " fill="#EEEEEE" transform="translate(128,46)"/>
<path d="M0 0 C2.97 0 5.94 0 9 0 C9 2.97 9 5.94 9 9 C6.03 9 3.06 9 0 9 C0 6.03 0 3.06 0 0 Z " fill="#FFFFFF" transform="translate(119,46)"/>
<path d="M0 0 C2.97 0 5.94 0 9 0 C9 2.97 9 5.94 9 9 C6.03 9 3.06 9 0 9 C0 6.03 0 3.06 0 0 Z " fill="#EDEDED" transform="translate(110,46)"/>
<path d="M0 0 C2.97 0 5.94 0 9 0 C9 2.97 9 5.94 9 9 C6.03 9 3.06 9 0 9 C0 6.03 0 3.06 0 0 Z " fill="#FFFFFF" transform="translate(101,46)"/>
<path d="M0 0 C2.97 0 5.94 0 9 0 C9 2.97 9 5.94 9 9 C6.03 9 3.06 9 0 9 C0 6.03 0 3.06 0 0 Z " fill="#EEEEEE" transform="translate(92,46)"/>
<path d="M0 0 C2.97 0 5.94 0 9 0 C9 2.97 9 5.94 9 9 C6.03 9 3.06 9 0 9 C0 6.03 0 3.06 0 0 Z " fill="#EDEDED" transform="translate(55,46)"/>
<path d="M0 0 C2.97 0 5.94 0 9 0 C9 2.97 9 5.94 9 9 C6.03 9 3.06 9 0 9 C0 6.03 0 3.06 0 0 Z " fill="#FFFFFF" transform="translate(46,46)"/>
<path d="M0 0 C2.97 0 5.94 0 9 0 C9 2.97 9 5.94 9 9 C6.03 9 3.06 9 0 9 C0 6.03 0 3.06 0 0 Z " fill="#EEEEEE" transform="translate(37,46)"/>
<path d="M0 0 C2.97 0 5.94 0 9 0 C9 2.97 9 5.94 9 9 C6.03 9 3.06 9 0 9 C0 6.03 0 3.06 0 0 Z " fill="#FEFEFE" transform="translate(28,46)"/>
<path d="M0 0 C2.97 0 5.94 0 9 0 C9 2.97 9 5.94 9 9 C6.03 9 3.06 9 0 9 C0 6.03 0 3.06 0 0 Z " fill="#EEEEEE" transform="translate(18,46)"/>
<path d="M0 0 C2.97 0 5.94 0 9 0 C9 2.97 9 5.94 9 9 C6.03 9 3.06 9 0 9 C0 6.03 0 3.06 0 0 Z " fill="#FFFFFF" transform="translate(9,46)"/>
<path d="M0 0 C2.97 0 5.94 0 9 0 C9 2.97 9 5.94 9 9 C6.03 9 3.06 9 0 9 C0 6.03 0 3.06 0 0 Z " fill="#EDEDED" transform="translate(0,46)"/>
<path d="M0 0 C2.97 0 5.94 0 9 0 C9 2.97 9 5.94 9 9 C6.03 9 3.06 9 0 9 C0 6.03 0 3.06 0 0 Z " fill="#EDEDED" transform="translate(211,37)"/>
<path d="M0 0 C2.97 0 5.94 0 9 0 C9 2.97 9 5.94 9 9 C6.03 9 3.06 9 0 9 C0 6.03 0 3.06 0 0 Z " fill="#FFFFFF" transform="translate(202,37)"/>
<path d="M0 0 C2.97 0 5.94 0 9 0 C9 2.97 9 5.94 9 9 C6.03 9 3.06 9 0 9 C0 6.03 0 3.06 0 0 Z " fill="#EEEEEE" transform="translate(193,37)"/>
<path d="M0 0 C2.97 0 5.94 0 9 0 C9 2.97 9 5.94 9 9 C6.03 9 3.06 9 0 9 C0 6.03 0 3.06 0 0 Z " fill="#FFFFFF" transform="translate(147,37)"/>
<path d="M0 0 C2.97 0 5.94 0 9 0 C9 2.97 9 5.94 9 9 C6.03 9 3.06 9 0 9 C0 6.03 0 3.06 0 0 Z " fill="#EEEEEE" transform="translate(138,37)"/>
<path d="M0 0 C2.97 0 5.94 0 9 0 C9 2.97 9 5.94 9 9 C6.03 9 3.06 9 0 9 C0 6.03 0 3.06 0 0 Z " fill="#FFFFFF" transform="translate(110,37)"/>
<path d="M0 0 C2.97 0 5.94 0 9 0 C9 2.97 9 5.94 9 9 C6.03 9 3.06 9 0 9 C0 6.03 0 3.06 0 0 Z " fill="#FFFFFF" transform="translate(55,37)"/>
<path d="M0 0 C2.97 0 5.94 0 9 0 C9 2.97 9 5.94 9 9 C6.03 9 3.06 9 0 9 C0 6.03 0 3.06 0 0 Z " fill="#EDEDED" transform="translate(46,37)"/>
<path d="M0 0 C2.97 0 5.94 0 9 0 C9 2.97 9 5.94 9 9 C6.03 9 3.06 9 0 9 C0 6.03 0 3.06 0 0 Z " fill="#FFFFFF" transform="translate(37,37)"/>
<path d="M0 0 C2.97 0 5.94 0 9 0 C9 2.97 9 5.94 9 9 C6.03 9 3.06 9 0 9 C0 6.03 0 3.06 0 0 Z " fill="#EEEEEE" transform="translate(28,37)"/>
<path d="M0 0 C2.97 0 5.94 0 9 0 C9 2.97 9 5.94 9 9 C6.03 9 3.06 9 0 9 C0 6.03 0 3.06 0 0 Z " fill="#EEEEEE" transform="translate(9,37)"/>
<path d="M0 0 C2.97 0 5.94 0 9 0 C9 2.97 9 5.94 9 9 C6.03 9 3.06 9 0 9 C0 6.03 0 3.06 0 0 Z " fill="#FFFFFF" transform="translate(0,37)"/>
<path d="M0 0 C2.97 0 5.94 0 9 0 C9 2.97 9 5.94 9 9 C6.03 9 3.06 9 0 9 C0 6.03 0 3.06 0 0 Z " fill="#FEFEFE" transform="translate(211,28)"/>
<path d="M0 0 C2.97 0 5.94 0 9 0 C9 2.97 9 5.94 9 9 C6.03 9 3.06 9 0 9 C0 6.03 0 3.06 0 0 Z " fill="#EEEEEE" transform="translate(202,28)"/>
<path d="M0 0 C2.97 0 5.94 0 9 0 C9 2.97 9 5.94 9 9 C6.03 9 3.06 9 0 9 C0 6.03 0 3.06 0 0 Z " fill="#FEFEFE" transform="translate(101,28)"/>
<path d="M0 0 C2.97 0 5.94 0 9 0 C9 2.97 9 5.94 9 9 C6.03 9 3.06 9 0 9 C0 6.03 0 3.06 0 0 Z " fill="#EEEEEE" transform="translate(55,28)"/>
<path d="M0 0 C2.97 0 5.94 0 9 0 C9 2.97 9 5.94 9 9 C6.03 9 3.06 9 0 9 C0 6.03 0 3.06 0 0 Z " fill="#EEEEEE" transform="translate(37,28)"/>
<path d="M0 0 C2.97 0 5.94 0 9 0 C9 2.97 9 5.94 9 9 C6.03 9 3.06 9 0 9 C0 6.03 0 3.06 0 0 Z " fill="#EEEEEE" transform="translate(0,28)"/>
<path d="M0 0 C2.97 0 5.94 0 9 0 C9 2.97 9 5.94 9 9 C6.03 9 3.06 9 0 9 C0 6.03 0 3.06 0 0 Z " fill="#EEEEEE" transform="translate(211,18)"/>
<path d="M0 0 C2.97 0 5.94 0 9 0 C9 2.97 9 5.94 9 9 C6.03 9 3.06 9 0 9 C0 6.03 0 3.06 0 0 Z " fill="#EEEEEE" transform="translate(64,18)"/>
<path d="M0 0 C2.97 0 5.94 0 9 0 C9 2.97 9 5.94 9 9 C6.03 9 3.06 9 0 9 C0 6.03 0 3.06 0 0 Z " fill="#EEEEEE" transform="translate(46,18)"/>
<path d="M0 0 C2.97 0 5.94 0 9 0 C9 2.97 9 5.94 9 9 C6.03 9 3.06 9 0 9 C0 6.03 0 3.06 0 0 Z " fill="#EEEEEE" transform="translate(9,18)"/>
<path d="M0 0 C2.97 0 5.94 0 9 0 C9 2.97 9 5.94 9 9 C6.03 9 3.06 9 0 9 C0 6.03 0 3.06 0 0 Z " fill="#FFFFFF" transform="translate(211,9)"/>
<path d="M0 0 C2.97 0 5.94 0 9 0 C9 2.97 9 5.94 9 9 C6.03 9 3.06 9 0 9 C0 6.03 0 3.06 0 0 Z " fill="#FEFEFE" transform="translate(174,9)"/>
<path d="M0 0 C2.97 0 5.94 0 9 0 C9 2.97 9 5.94 9 9 C6.03 9 3.06 9 0 9 C0 6.03 0 3.06 0 0 Z " fill="#FEFEFE" transform="translate(64,9)"/>
<path d="M0 0 C2.97 0 5.94 0 9 0 C9 2.97 9 5.94 9 9 C6.03 9 3.06 9 0 9 C0 6.03 0 3.06 0 0 Z " fill="#EEEEEE" transform="translate(55,9)"/>
<path d="M0 0 C2.97 0 5.94 0 9 0 C9 2.97 9 5.94 9 9 C6.03 9 3.06 9 0 9 C0 6.03 0 3.06 0 0 Z " fill="#FFFFFF" transform="translate(46,9)"/>
<path d="M0 0 C2.97 0 5.94 0 9 0 C9 2.97 9 5.94 9 9 C6.03 9 3.06 9 0 9 C0 6.03 0 3.06 0 0 Z " fill="#FEFEFE" transform="translate(9,9)"/>
<path d="M0 0 C2.97 0 5.94 0 9 0 C9 2.97 9 5.94 9 9 C6.03 9 3.06 9 0 9 C0 6.03 0 3.06 0 0 Z " fill="#EEEEEE" transform="translate(0,9)"/>
<path d="M0 0 C2.97 0 5.94 0 9 0 C9 2.97 9 5.94 9 9 C6.03 9 3.06 9 0 9 C0 6.03 0 3.06 0 0 Z " fill="#EDEDED" transform="translate(211,0)"/>
<path d="M0 0 C2.97 0 5.94 0 9 0 C9 2.97 9 5.94 9 9 C6.03 9 3.06 9 0 9 C0 6.03 0 3.06 0 0 Z " fill="#FFFFFF" transform="translate(202,0)"/>
<path d="M0 0 C2.97 0 5.94 0 9 0 C9 2.97 9 5.94 9 9 C6.03 9 3.06 9 0 9 C0 6.03 0 3.06 0 0 Z " fill="#EEEEEE" transform="translate(174,0)"/>
<path d="M0 0 C2.97 0 5.94 0 9 0 C9 2.97 9 5.94 9 9 C6.03 9 3.06 9 0 9 C0 6.03 0 3.06 0 0 Z " fill="#FFFFFF" transform="translate(165,0)"/>
<path d="M0 0 C2.97 0 5.94 0 9 0 C9 2.97 9 5.94 9 9 C6.03 9 3.06 9 0 9 C0 6.03 0 3.06 0 0 Z " fill="#EEEEEE" transform="translate(64,0)"/>
<path d="M0 0 C2.97 0 5.94 0 9 0 C9 2.97 9 5.94 9 9 C6.03 9 3.06 9 0 9 C0 6.03 0 3.06 0 0 Z " fill="#FFFFFF" transform="translate(55,0)"/>
<path d="M0 0 C2.97 0 5.94 0 9 0 C9 2.97 9 5.94 9 9 C6.03 9 3.06 9 0 9 C0 6.03 0 3.06 0 0 Z " fill="#EDEDED" transform="translate(46,0)"/>
<path d="M0 0 C2.97 0 5.94 0 9 0 C9 2.97 9 5.94 9 9 C6.03 9 3.06 9 0 9 C0 6.03 0 3.06 0 0 Z " fill="#FFFFFF" transform="translate(37,0)"/>
<path d="M0 0 C2.97 0 5.94 0 9 0 C9 2.97 9 5.94 9 9 C6.03 9 3.06 9 0 9 C0 6.03 0 3.06 0 0 Z " fill="#FFFFFF" transform="translate(0,0)"/>
<path d="M0 0 C2.97 0 5.94 0 9 0 C9 3.3 9 6.6 9 10 C4.545 9.01 4.545 9.01 0 8 C0 5.36 0 2.72 0 0 Z " fill="#EBEBEB" transform="translate(37,138)"/>
<path d="M0 0 C2.97 0 5.94 0 9 0 C9.09765625 6.15234375 9.09765625 6.15234375 9 8 C8 9 8 9 6.15234375 9.09765625 C4.1015625 9.06510417 2.05078125 9.03255208 0 9 C0 6.03 0 3.06 0 0 Z " fill="#EEEEEE" transform="translate(138,129)"/>
<path d="M0 0 C2.97 0 5.94 0 9 0 C9.09765625 6.15234375 9.09765625 6.15234375 9 8 C8 9 8 9 6.15234375 9.09765625 C4.1015625 9.06510417 2.05078125 9.03255208 0 9 C0 6.03 0 3.06 0 0 Z " fill="#EEEEEE" transform="translate(83,129)"/>
<path d="M0 0 C2.97 0 5.94 0 9 0 C9.09765625 6.15234375 9.09765625 6.15234375 9 8 C8 9 8 9 6.15234375 9.09765625 C4.1015625 9.06510417 2.05078125 9.03255208 0 9 C0 6.03 0 3.06 0 0 Z " fill="#EEEEEE" transform="translate(28,129)"/>
<path d="M0 0 C2.05078125 0.03255208 4.1015625 0.06510417 6.15234375 0.09765625 C6.15234375 3.06765625 6.15234375 6.03765625 6.15234375 9.09765625 C3.18234375 9.09765625 0.21234375 9.09765625 -2.84765625 9.09765625 C-2.9453125 2.9453125 -2.9453125 2.9453125 -2.84765625 1.09765625 C-1.84765625 0.09765625 -1.84765625 0.09765625 0 0 Z " fill="#FEFEFE" transform="translate(185.84765625,36.90234375)"/>
<path d="M0 0 C2.05078125 0.03255208 4.1015625 0.06510417 6.15234375 0.09765625 C7.03125 6.25 7.03125 6.25 7.15234375 8.09765625 C6.15234375 9.09765625 6.15234375 9.09765625 4.33984375 9.23046875 C3.61796875 9.22789063 2.89609375 9.2253125 2.15234375 9.22265625 C1.43046875 9.22523437 0.70859375 9.2278125 -0.03515625 9.23046875 C-1.84765625 9.09765625 -1.84765625 9.09765625 -2.84765625 8.09765625 C-2.97265625 4.59765625 -2.97265625 4.59765625 -2.84765625 1.09765625 C-1.84765625 0.09765625 -1.84765625 0.09765625 0 0 Z " fill="#EEEEEE" transform="translate(185.84765625,27.90234375)"/>
<path d="M0 0 C2.64 0 5.28 0 8 0 C8.2226746 1.43534841 8.42761906 2.87345525 8.625 4.3125 C8.74101562 5.11300781 8.85703125 5.91351563 8.9765625 6.73828125 C9 9 9 9 7 12 C7 11.01 7 10.02 7 9 C4.69 9 2.38 9 0 9 C0 6.03 0 3.06 0 0 Z " fill="#EAEAEA" transform="translate(156,55)"/>
<path d="M0 0 C0.66 0 1.32 0 2 0 C2.67154933 1.28913487 3.33708859 2.58140204 4 3.875 C4.37125 4.59429687 4.7425 5.31359375 5.125 6.0546875 C6 8 6 8 6 10 C3.69 10 1.38 10 -1 10 C-1 15.61 -1 21.22 -1 27 C-1.33 27 -1.66 27 -2 27 C-2.05784708 22.87505849 -2.09354407 18.75022056 -2.125 14.625 C-2.14175781 13.449375 -2.15851563 12.27375 -2.17578125 11.0625 C-2.18222656 9.94101563 -2.18867188 8.81953125 -2.1953125 7.6640625 C-2.20578613 6.62717285 -2.21625977 5.5902832 -2.22705078 4.52197266 C-2 2 -2 2 0 0 Z " fill="#F7F7F7" transform="translate(194,137)"/>
<path d="M0 0 C2.97 0 5.94 0 9 0 C9 2.64 9 5.28 9 8 C5.37 8 1.74 8 -2 8 C-1.34 7.67 -0.68 7.34 0 7 C0 4.69 0 2.38 0 0 Z " fill="#FEFEFE" transform="translate(119,83)"/>
<path d="M0 0 C6.27 0 12.54 0 19 0 C19 0.33 19 0.66 19 1 C15.7 1 12.4 1 9 1 C9 2.98 9 4.96 9 7 C6.03 7 3.06 7 0 7 C0 4.69 0 2.38 0 0 Z " fill="#FFFFFF" transform="translate(119,195)"/>
<path d="M0 0 C0 2.97 0 5.94 0 9 C-2.97 9 -5.94 9 -9 9 C-9 6.36 -9 3.72 -9 1 C-1.125 0 -1.125 0 0 0 Z " fill="#EDEDED" transform="translate(174,119)"/>
<path d="M0 0 C0 2.97 0 5.94 0 9 C-2.97 9 -5.94 9 -9 9 C-9 6.36 -9 3.72 -9 1 C-1.125 0 -1.125 0 0 0 Z " fill="#EDEDED" transform="translate(119,119)"/>
<path d="M0 0 C0 2.97 0 5.94 0 9 C-2.97 9 -5.94 9 -9 9 C-9 6.36 -9 3.72 -9 1 C-1.125 0 -1.125 0 0 0 Z " fill="#EDEDED" transform="translate(9,119)"/>
<path d="M0 0 C2.97 0 5.94 0 9 0 C9 2.64 9 5.28 9 8 C6.03 8 3.06 8 0 8 C0 5.36 0 2.72 0 0 Z " fill="#EDEDED" transform="translate(211,221)"/>
<path d="M0 0 C2.97 0 5.94 0 9 0 C9 2.64 9 5.28 9 8 C6.03 8 3.06 8 0 8 C0 5.36 0 2.72 0 0 Z " fill="#EDEDED" transform="translate(156,221)"/>
<path d="M0 0 C2.97 0 5.94 0 9 0 C9 2.64 9 5.28 9 8 C6.03 8 3.06 8 0 8 C0 5.36 0 2.72 0 0 Z " fill="#EDEDED" transform="translate(101,221)"/>
<path d="M0 0 C0.33 0 0.66 0 1 0 C1 2.31 1 4.62 1 7 C2.98 7 4.96 7 7 7 C7 9.97 7 12.94 7 16 C5.02 16 3.04 16 1 16 C0.67 16.66 0.34 17.32 0 18 C0 12.06 0 6.12 0 0 Z " fill="#E9E9E9" transform="translate(48,195)"/>
<path d="M0 0 C1.98 0 3.96 0 6 0 C6 0.99 6 1.98 6 3 C6.99 3 7.98 3 9 3 C9 4.98 9 6.96 9 9 C6.03 9 3.06 9 0 9 C0 6.03 0 3.06 0 0 Z " fill="#EEEEEE" transform="translate(92,193)"/>
<path d="M0 0 C2.31 0 4.62 0 7 0 C9.09230769 4.43076923 9.09230769 4.43076923 8.625 7.3125 C8.41875 7.869375 8.2125 8.42625 8 9 C5.36 9 2.72 9 0 9 C0 6.03 0 3.06 0 0 Z " fill="#E7E7E7" transform="translate(156,37)"/>
<path d="M0 0 C1.7074998 1.28062485 3.37373596 2.61767557 5 4 C5 4.66 5 5.32 5 6 C6.32 6 7.64 6 9 6 C9 7.98 9 9.96 9 12 C6.03 12 3.06 12 0 12 C0 8.04 0 4.08 0 0 Z " fill="#EDEDED" transform="translate(0,190)"/>
<path d="M0 0 C4.29 0 8.58 0 13 0 C11.68 0.33 10.36 0.66 9 1 C9 2.98 9 4.96 9 7 C6.03 7 3.06 7 0 7 C0 4.69 0 2.38 0 0 Z " fill="#FFFFFF" transform="translate(174,195)"/>
<path d="M0 0 C1.32 0.33 2.64 0.66 4 1 C4 3.97 4 6.94 4 10 C1.36 10 -1.28 10 -4 10 C-4.33 9.01 -4.66 8.02 -5 7 C-4.00390625 5.17578125 -4.00390625 5.17578125 -2.5625 3.3125 C-2.08941406 2.68988281 -1.61632812 2.06726563 -1.12890625 1.42578125 C-0.75636719 0.95527344 -0.38382812 0.48476563 0 0 Z " fill="#E9E9E9" transform="translate(97,27)"/>
<path d="M0 0 C2.97 0 5.94 0 9 0 C9 2.31 9 4.62 9 7 C4.94568308 8.15837626 2.78187881 7.83691257 -1 6 C-0.67 4.02 -0.34 2.04 0 0 Z " fill="#E8E8E8" transform="translate(110,83)"/>
<path d="M0 0 C6.6 0 13.2 0 20 0 C20 0.33 20 0.66 20 1 C19.20335938 1.18175781 18.40671875 1.36351563 17.5859375 1.55078125 C12.00973884 2.8736021 7.05067811 4.20883578 2 7 C1.34 7 0.68 7 0 7 C0 4.69 0 2.38 0 0 Z " fill="#E8E8E8" transform="translate(101,0)"/>
<path d="M0 0 C4.71403788 0.47939368 8.66579301 0.96834048 13 3 C12.01 3.495 12.01 3.495 11 4 C11 5.32 11 6.64 11 8 C8.03 8 5.06 8 2 8 C2 5.69 2 3.38 2 1 C1.34 0.67 0.68 0.34 0 0 Z " fill="#E9E9E9" transform="translate(145,102)"/>
<path d="M0 0 C1.29315061 0.95632999 2.58446853 1.91513851 3.875 2.875 C4.59429687 3.40867188 5.31359375 3.94234375 6.0546875 4.4921875 C8 6 8 6 10 8 C9.34 8 8.68 8 8 8 C8 8.66 8 9.32 8 10 C5.03 10 2.06 10 -1 10 C-1.125 2.25 -1.125 2.25 0 0 Z " fill="#E7E7E7" transform="translate(47,128)"/>
<path d="M0 0 C0 2.97 0 5.94 0 9 C-2.97 9 -5.94 9 -9 9 C-9.33 8.01 -9.66 7.02 -10 6 C-8.71283353 4.99421411 -7.42011342 3.99553202 -6.125 3 C-5.40570313 2.443125 -4.68640625 1.88625 -3.9453125 1.3125 C-2 0 -2 0 0 0 Z " fill="#EBEBEB" transform="translate(110,18)"/>
<path d="M0 0 C1.98 0 3.96 0 6 0 C6 2.64 6 5.28 6 8 C2.04 8 -1.92 8 -6 8 C-4.68 6.68 -3.36 5.36 -2 4 C-1.34 4 -0.68 4 0 4 C0 2.68 0 1.36 0 0 Z " fill="#ECECEC" transform="translate(49,221)"/>
<path d="M0 0 C2.25 -0.375 2.25 -0.375 5 0 C7.1875 2.875 7.1875 2.875 9 6 C9.66 6.66 10.32 7.32 11 8 C7.37 8 3.74 8 0 8 C0 5.36 0 2.72 0 0 Z " fill="#EAEAEA" transform="translate(28,221)"/>
<path d="M0 0 C2.64 0 5.28 0 8 0 C8 0.99 8 1.98 8 3 C7.01 3.33 6.02 3.66 5 4 C5 5.65 5 7.3 5 9 C3.35 9 1.7 9 0 9 C0 6.03 0 3.06 0 0 Z " fill="#EAEAEA" transform="translate(28,147)"/>
<path d="M0 0 C2.64 0 5.28 0 8 0 C8.625 3.375 8.625 3.375 9 7 C8.34 7.66 7.68 8.32 7 9 C4.28775382 7.38731308 1.62647188 5.75098126 -1 4 C-0.67 2.68 -0.34 1.36 0 0 Z " fill="#EEEEEE" transform="translate(74,175)"/>
<path d="M0 0 C2.97 0 5.94 0 9 0 C9 1.98 9 3.96 9 6 C6.03 6 3.06 6 0 6 C0 4.02 0 2.04 0 0 Z " fill="#EEEEEE" transform="translate(183,196)"/>
<path d="M0 0 C2.97 0 5.94 0 9 0 C9 1.98 9 3.96 9 6 C6.03 6 3.06 6 0 6 C0 4.02 0 2.04 0 0 Z " fill="#EDEDED" transform="translate(165,196)"/>
<path d="M0 0 C2.97 0 5.94 0 9 0 C9 1.98 9 3.96 9 6 C6.03 6 3.06 6 0 6 C0 4.02 0 2.04 0 0 Z " fill="#EDEDED" transform="translate(147,196)"/>
<path d="M0 0 C2.97 0 5.94 0 9 0 C9 1.98 9 3.96 9 6 C6.03 6 3.06 6 0 6 C0 4.02 0 2.04 0 0 Z " fill="#EEEEEE" transform="translate(128,196)"/>
<path d="M0 0 C2.97 0 5.94 0 9 0 C9 1.98 9 3.96 9 6 C6.03 6 3.06 6 0 6 C0 4.02 0 2.04 0 0 Z " fill="#EDEDED" transform="translate(110,196)"/>
<path d="M0 0 C2.97 0 5.94 0 9 0 C9 1.98 9 3.96 9 6 C6.03 6 3.06 6 0 6 C0 4.02 0 2.04 0 0 Z " fill="#EDEDED" transform="translate(55,196)"/>
<path d="M0 0 C2.97 0 5.94 0 9 0 C9 1.98 9 3.96 9 6 C6.03 6 3.06 6 0 6 C0 4.02 0 2.04 0 0 Z " fill="#EEEEEE" transform="translate(18,196)"/>
<path d="M0 0 C1.98 0 3.96 0 6 0 C6 2.97 6 5.94 6 9 C4.02 9 2.04 9 0 9 C0 6.03 0 3.06 0 0 Z " fill="#FFFFFF" transform="translate(49,156)"/>
<path d="M0 0 C1.2065625 0.0309375 1.2065625 0.0309375 2.4375 0.0625 C3.57393966 3.47181897 3.30497764 4.06585456 2 7.25 C1.71253906 7.96542969 1.42507812 8.68085937 1.12890625 9.41796875 C0.90074219 9.96066406 0.67257813 10.50335938 0.4375 11.0625 C0.1075 10.4025 -0.2225 9.7425 -0.5625 9.0625 C-1.5525 8.7325 -2.5425 8.4025 -3.5625 8.0625 C-3.60491723 5.72955225 -3.60342937 3.39547433 -3.5625 1.0625 C-2.5625 0.0625 -2.5625 0.0625 0 0 Z " fill="#E7E7E7" transform="translate(76.5625,27.9375)"/>
<path d="M0 0 C6.27 0 12.54 0 19 0 C19 0.33 19 0.66 19 1 C17.2984375 1.4640625 17.2984375 1.4640625 15.5625 1.9375 C12.21224901 2.62924531 12.21224901 2.62924531 11 4 C9.48071962 4.07179964 7.95832518 4.08392007 6.4375 4.0625 C5.61121094 4.05347656 4.78492187 4.04445313 3.93359375 4.03515625 C3.29550781 4.02355469 2.65742187 4.01195313 2 4 C2 3.01 2 2.02 2 1 C1.34 0.67 0.68 0.34 0 0 Z " fill="#FCFCFC" transform="translate(117,106)"/>
<path d="M0 0 C1.134375 0.020625 2.26875 0.04125 3.4375 0.0625 C1.9097133 3.50002007 -0.06431056 6.25203688 -2.5625 9.0625 C-3.2225 9.0625 -3.8825 9.0625 -4.5625 9.0625 C-4.66015625 2.91015625 -4.66015625 2.91015625 -4.5625 1.0625 C-3.5625 0.0625 -3.5625 0.0625 0 0 Z " fill="#F5F5F5" transform="translate(50.5625,118.9375)"/>
<path d="M0 0 C2.97 0 5.94 0 9 0 C8.71872579 1.48117801 8.42466268 2.95993249 8.125 4.4375 C7.96257812 5.26121094 7.80015625 6.08492187 7.6328125 6.93359375 C7.42398438 7.61550781 7.21515625 8.29742187 7 9 C6.01 9.495 6.01 9.495 5 10 C4.16121545 8.71186658 3.32913217 7.41936744 2.5 6.125 C2.0359375 5.40570312 1.571875 4.68640625 1.09375 3.9453125 C0 2 0 2 0 0 Z " fill="#F5F5F5" transform="translate(167,18)"/>
<path d="M0 0 C1.65 0 3.3 0 5 0 C5 2.97 5 5.94 5 9 C3.35 9 1.7 9 0 9 C0 6.03 0 3.06 0 0 Z " fill="#FFFFFF" transform="translate(92,184)"/>
<path d="M0 0 C0 1.65 0 3.3 0 5 C-2.97 5 -5.94 5 -9 5 C-9 3.35 -9 1.7 -9 0 C-5.93109813 -1.53445094 -3.29905734 -0.54984289 0 0 Z " fill="#EAEAEA" transform="translate(119,105)"/>
<path d="M0 0 C1.32 0 2.64 0 4 0 C4 2.97 4 5.94 4 9 C2.35 9 0.7 9 -1 9 C-1.09765625 2.84765625 -1.09765625 2.84765625 -1 1 C-0.67 0.67 -0.34 0.34 0 0 Z " fill="#EEEEEE" transform="translate(29,165)"/>
<path d="M0 0 C2.05078125 0.03255208 4.1015625 0.06510417 6.15234375 0.09765625 C6.15234375 1.74765625 6.15234375 3.39765625 6.15234375 5.09765625 C3.51234375 5.09765625 0.87234375 5.09765625 -1.84765625 5.09765625 C-2.41015625 3.16015625 -2.41015625 3.16015625 -2.84765625 1.09765625 C-1.84765625 0.09765625 -1.84765625 0.09765625 0 0 Z " fill="#EFEFEF" transform="translate(20.84765625,174.90234375)"/>
<path d="M0 0 C2.64 0 5.28 0 8 0 C7.4375 1.9375 7.4375 1.9375 6 4 C2.375 4.75 2.375 4.75 -1 5 C-0.67 3.35 -0.34 1.7 0 0 Z " fill="#F8F8F8" transform="translate(193,175)"/>
<path d="M0 0 C0 1.65 0 3.3 0 5 C-2.97 5 -5.94 5 -9 5 C-9 3.68 -9 2.36 -9 1 C-1.125 0 -1.125 0 0 0 Z " fill="#EEEEEE" transform="translate(156,174)"/>
<path d="M0 0 C3.3 0.33 6.6 0.66 10 1 C10.33 2.98 10.66 4.96 11 7 C6.96678237 5.78065514 3.45730521 4.44045073 0 2 C0 1.34 0 0.68 0 0 Z " fill="#F4F4F4" transform="translate(164,91)"/>
<path d="M0 0 C0.33 0 0.66 0 1 0 C1.33 2.64 1.66 5.28 2 8 C2.66 8 3.32 8 4 8 C4 10.97 4 13.94 4 17 C3.01 17 2.02 17 1 17 C-0.13480527 13.39006828 -0.10015767 10.0157673 -0.0625 6.25 C-0.05347656 5.07953125 -0.04445312 3.9090625 -0.03515625 2.703125 C-0.02355469 1.81109375 -0.01195312 0.9190625 0 0 Z " fill="#D2D2D2" transform="translate(179,47)"/>
<path d="M0 0 C2.64 0 5.28 0 8 0 C8 2.31 8 4.62 8 7 C5.05043472 5.63055898 2.47531189 4.12169591 0 2 C0 1.34 0 0.68 0 0 Z " fill="#FAFAFA" transform="translate(157,9)"/>
<path d="M0 0 C2.64 0 5.28 0 8 0 C8 1.32 8 2.64 8 4 C5.03 4 2.06 4 -1 4 C-0.67 2.68 -0.34 1.36 0 0 Z " fill="#EEEEEE" transform="translate(129,175)"/>
<path d="M0 0 C-0.9375 2.5 -0.9375 2.5 -3 5 C-6.03816258 5.45787911 -8.94925785 5.28780586 -12 5 C-9.80061184 1.70091776 -8.27556475 0.34222469 -4.4375 -0.6875 C-2 -1 -2 -1 0 0 Z " fill="#DEDEDE" transform="translate(140,105)"/>
<path d="M0 0 C0.66 0.33 1.32 0.66 2 1 C1.67 3.64 1.34 6.28 1 9 C3.31 9 5.62 9 8 9 C8 9.33 8 9.66 8 10 C5.69 10 3.38 10 1 10 C1 12.31 1 14.62 1 17 C0.67 17 0.34 17 0 17 C0 14.69 0 12.38 0 10 C-4.455 10.495 -4.455 10.495 -9 11 C-9 10.34 -9 9.68 -9 9 C-6.03 9 -3.06 9 0 9 C0 6.03 0 3.06 0 0 Z " fill="#F7F7F7" transform="translate(137,64)"/>
<path d="M0 0 C0.66 0.33 1.32 0.66 2 1 C1.67 3.64 1.34 6.28 1 9 C3.31 9 5.62 9 8 9 C8 9.33 8 9.66 8 10 C5.69 10 3.38 10 1 10 C1 12.31 1 14.62 1 17 C0.67 17 0.34 17 0 17 C0 14.69 0 12.38 0 10 C-4.455 10.495 -4.455 10.495 -9 11 C-9 10.34 -9 9.68 -9 9 C-6.03 9 -3.06 9 0 9 C0 6.03 0 3.06 0 0 Z " fill="#F7F7F7" transform="translate(27,64)"/>
<path d="M0 0 C0.33 1.32 0.66 2.64 1 4 C1.99 4 2.98 4 4 4 C4 6.97 4 9.94 4 13 C3.34 13 2.68 13 2 13 C1.67 13.99 1.34 14.98 1 16 C0.67 10.72 0.34 5.44 0 0 Z " fill="#FDFDFD" transform="translate(179,42)"/>
<path d="M0 0 C5.61 0 11.22 0 17 0 C16.67 1.32 16.34 2.64 16 4 C10.72 3.01 5.44 2.02 0 1 C0 0.67 0 0.34 0 0 Z " fill="#DADADA" transform="translate(130,0)"/>
<path d="M0 0 C0.66 0.33 1.32 0.66 2 1 C1.67 3.64 1.34 6.28 1 9 C3.31 9 5.62 9 8 9 C8 9.33 8 9.66 8 10 C5.69 10 3.38 10 1 10 C1 11.98 1 13.96 1 16 C0.67 16 0.34 16 0 16 C0 14.02 0 12.04 0 10 C-4.455 10.495 -4.455 10.495 -9 11 C-9 10.34 -9 9.68 -9 9 C-6.03 9 -3.06 9 0 9 C0 6.03 0 3.06 0 0 Z " fill="#F6F6F6" transform="translate(82,165)"/>
<path d="M0 0 C2.31 0 4.62 0 7 0 C5.71480435 2.86697492 4.42870746 4.97607712 2 7 C1.34 7 0.68 7 0 7 C0 4.69 0 2.38 0 0 Z " fill="#F7F7F7" transform="translate(55,110)"/>
<path d="M0 0 C0.99 0.33 1.98 0.66 3 1 C3.73046875 2.84765625 3.73046875 2.84765625 4.1875 5.0625 C4.34605469 5.79597656 4.50460938 6.52945313 4.66796875 7.28515625 C4.83232422 8.13400391 4.83232422 8.13400391 5 9 C4.01 9.33 3.02 9.66 2 10 C1.34 9.67 0.68 9.34 0 9 C0 6.03 0 3.06 0 0 Z " fill="#E8E8E8" transform="translate(73,64)"/>
<path d="M0 0 C0.66 0.33 1.32 0.66 2 1 C1.67 3.64 1.34 6.28 1 9 C3.31 9 5.62 9 8 9 C8 9.33 8 9.66 8 10 C5.69 10 3.38 10 1 10 C0.67 11.32 0.34 12.64 0 14 C0 12.68 0 11.36 0 10 C-4.455 10.495 -4.455 10.495 -9 11 C-9 10.34 -9 9.68 -9 9 C-6.03 9 -3.06 9 0 9 C0 6.03 0 3.06 0 0 Z " fill="#F6F6F6" transform="translate(137,165)"/>
<path d="M0 0 C0.66 0 1.32 0 2 0 C4.44375 6.325 4.44375 6.325 3 10 C2.67 10.66 2.34 11.32 2 12 C1.34 12 0.68 12 0 12 C0 8.04 0 4.08 0 0 Z " fill="#D9D9D9" transform="translate(202,153)"/>
<path d="M0 0 C1.32 0 2.64 0 4 0 C4 4.29 4 8.58 4 13 C3.67 13 3.34 13 3 13 C2.01 8.71 1.02 4.42 0 0 Z " fill="#EAEAEA" transform="translate(216,147)"/>
<path d="M0 0 C1.65 0 3.3 0 5 0 C5 1.65 5 3.3 5 5 C3.02 5 1.04 5 -1 5 C-0.67 3.35 -0.34 1.7 0 0 Z " fill="#FEFEFE" transform="translate(28,175)"/>
<path d="M0 0 C0.66 0 1.32 0 2 0 C2 2.97 2 5.94 2 9 C1.01 9 0.02 9 -1 9 C-1.625 5.625 -1.625 5.625 -2 2 C-1.34 1.34 -0.68 0.68 0 0 Z " fill="#D9D9D9" transform="translate(90,55)"/>
<path d="M0 0 C0.99 0 1.98 0 3 0 C2.67 1.65 2.34 3.3 2 5 C0.35 5 -1.3 5 -3 5 C-1.6875 2.5 -1.6875 2.5 0 0 Z " fill="#FBFBFB" transform="translate(80,114)"/>
<path d="M0 0 C1.485 0.99 1.485 0.99 3 2 C3 3.32 3 4.64 3 6 C1.68 5.67 0.36 5.34 -1 5 C-0.67 3.35 -0.34 1.7 0 0 Z " fill="#E1E1E1" transform="translate(184,123)"/>
<path d="M0 0 C0.66 0.66 1.32 1.32 2 2 C1.56237193 5.17280351 0.22638495 8.05667611 -1 11 C-1.33 11 -1.66 11 -2 11 C-1.125 3.375 -1.125 3.375 0 0 Z " fill="#BFBFBF" transform="translate(90,38)"/>
</svg>
